<svg width="228" height="75" viewBox="0 0 228 75" fill="none" xmlns="http://www.w3.org/2000/svg">
<circle cx="37.5" cy="37.5" r="37.5" fill="#00E9E9"/>
<circle cx="152.5" cy="37.5" r="37.5" fill="#00E9E9"/>
<path d="M77.5 75C87.4456 75 96.9839 71.0491 104.017 64.0165C111.049 56.9839 115 47.4456 115 37.5C115 27.5544 111.049 18.0161 104.017 10.9835C96.9839 3.95088 87.4456 2.97307e-07 77.5 -1.63918e-06L77.5 37.5L77.5 75Z" fill="url(#paint0_linear_1_249)"/>
<path d="M190.5 75C200.446 75 209.984 71.0491 217.017 64.0165C224.049 56.9839 228 47.4456 228 37.5C228 27.5544 224.049 18.0161 217.017 10.9835C209.984 3.95088 200.446 2.97307e-07 190.5 -1.63918e-06L190.5 37.5L190.5 75Z" fill="url(#paint1_linear_1_249)"/>
<defs>
<linearGradient id="paint0_linear_1_249" x1="115" y1="71.8657" x2="33.5581" y2="63.619" gradientUnits="userSpaceOnUse">
<stop stop-color="#61DCDF"/>
<stop offset="1" stop-color="#886CFF"/>
</linearGradient>
<linearGradient id="paint1_linear_1_249" x1="228" y1="71.8657" x2="146.558" y2="63.619" gradientUnits="userSpaceOnUse">
<stop stop-color="#61DCDF"/>
<stop offset="1" stop-color="#886CFF"/>
</linearGradient>
</defs>
</svg>
