<svg width="60" height="63" viewBox="0 0 60 63" fill="none" xmlns="http://www.w3.org/2000/svg">
<path d="M45.7587 32.1962L44.3839 30.9212L45.7587 32.1962ZM28.081 14.5185L29.356 15.8933L28.081 14.5185ZM54.1521 10.8548L56.0113 11.0979L54.1521 10.8548ZM49.4224 6.12511L49.6656 7.98427L49.4224 6.12511ZM16.2357 31.8005L17.9193 32.6258L16.2357 31.8005ZM28.4767 44.0415L27.6514 42.3579L28.4767 44.0415ZM20.5681 25.567C19.8358 24.8347 18.6487 24.8347 17.9164 25.567C17.1842 26.2992 17.1842 27.4864 17.9164 28.2186L20.5681 25.567ZM32.0586 42.3608C32.7908 43.093 33.978 43.093 34.7102 42.3608C35.4424 41.6285 35.4424 40.4413 34.7102 39.7091L32.0586 42.3608ZM16.1487 46.7802C16.8809 46.0479 16.8809 44.8608 16.1487 44.1285C15.4164 43.3963 14.2292 43.3963 13.497 44.1285L16.1487 46.7802ZM6.42593 51.1996C5.6937 51.9318 5.6937 53.119 6.42593 53.8512C7.15817 54.5835 8.34535 54.5835 9.07758 53.8512L6.42593 51.1996ZM10.8454 41.4769C11.5776 40.7446 11.5776 39.5575 10.8454 38.8252C10.1131 38.093 8.92594 38.093 8.1937 38.8252L10.8454 41.4769ZM4.65817 42.3608C3.92593 43.093 3.92593 44.2802 4.65817 45.0124C5.3904 45.7446 6.57758 45.7446 7.30982 45.0124L4.65817 42.3608ZM21.452 52.0835C22.1842 51.3512 22.1842 50.1641 21.452 49.4318C20.7197 48.6996 19.5325 48.6996 18.8003 49.4318L21.452 52.0835ZM15.2648 52.9674C14.5325 53.6996 14.5325 54.8868 15.2648 55.619C15.997 56.3512 17.1842 56.3512 17.9164 55.619L15.2648 52.9674ZM26.4901 52.879L28.3462 52.6138L26.4901 52.879ZM39.3948 44.2169L41.2509 43.9517L39.3948 44.2169ZM7.39816 33.7871L7.66332 31.931L7.66332 31.931L7.39816 33.7871ZM16.0602 20.8824L15.795 22.7386L15.795 22.7386L16.0602 20.8824ZM24.3754 41.7489L18.5283 35.9018L15.8766 38.5534L21.7238 44.4005L24.3754 41.7489ZM44.3839 30.9212C39.6498 36.0255 31.9631 40.2441 27.6514 42.3579L29.3021 45.725C33.6526 43.5922 41.8918 39.1228 47.1334 33.4712L44.3839 30.9212ZM17.9193 32.6258C20.0331 28.3141 24.2517 20.6274 29.356 15.8933L26.806 13.1438C21.1544 18.3854 16.685 26.6245 14.5522 30.9751L17.9193 32.6258ZM52.2929 10.6116C51.5333 16.42 49.515 25.3889 44.3839 30.9212L47.1334 33.4712C53.1222 27.0141 55.2399 16.9954 56.0113 11.0979L52.2929 10.6116ZM29.356 15.8933C34.8883 10.7622 43.8572 8.74393 49.6656 7.98427L49.1793 4.26594C43.2818 5.03726 33.2631 7.15502 26.806 13.1438L29.356 15.8933ZM56.0113 11.0979C56.5389 7.06322 53.214 3.73825 49.1793 4.26594L49.6656 7.98427C51.258 7.77601 52.5012 9.01919 52.2929 10.6116L56.0113 11.0979ZM18.5283 35.9018C17.6204 34.9938 17.3985 33.6881 17.9193 32.6258L14.5522 30.9751C13.2817 33.5666 13.9072 36.5839 15.8766 38.5534L18.5283 35.9018ZM21.7238 44.4005C23.6933 46.37 26.7106 46.9955 29.3021 45.725L27.6514 42.3579C26.589 42.8787 25.2834 42.6568 24.3754 41.7489L21.7238 44.4005ZM17.9164 28.2186L32.0586 42.3608L34.7102 39.7091L20.5681 25.567L17.9164 28.2186ZM13.497 44.1285L6.42593 51.1996L9.07758 53.8512L16.1487 46.7802L13.497 44.1285ZM8.1937 38.8252L4.65817 42.3608L7.30982 45.0124L10.8454 41.4769L8.1937 38.8252ZM18.8003 49.4318L15.2648 52.9674L17.9164 55.619L21.452 52.0835L18.8003 49.4318ZM32.9424 17.612C30.2576 20.2969 30.2576 24.6499 32.9424 27.3347L35.5941 24.6831C34.3737 23.4627 34.3737 21.4841 35.5941 20.2637L32.9424 17.612ZM32.9424 27.3347C35.6273 30.0196 39.9803 30.0196 42.6652 27.3347L40.0135 24.6831C38.7931 25.9035 36.8145 25.9035 35.5941 24.6831L32.9424 27.3347ZM42.6652 27.3347C45.35 24.6499 45.35 20.2969 42.6652 17.612L40.0135 20.2637C41.2339 21.4841 41.2339 23.4627 40.0135 24.6831L42.6652 27.3347ZM42.6652 17.612C39.9803 14.9272 35.6273 14.9272 32.9424 17.612L35.5941 20.2637C36.8145 19.0433 38.7931 19.0433 40.0135 20.2637L42.6652 17.612ZM37.3619 45.0124L29.4069 52.9674L32.0586 55.619L40.0135 47.6641L37.3619 45.0124ZM28.3462 52.6138L27.2856 45.1892L23.5733 45.7195L24.6339 53.1441L28.3462 52.6138ZM36.8315 39.5323L37.5386 44.4821L41.2509 43.9517L40.5438 39.002L36.8315 39.5323ZM29.4069 52.9674C29.0427 53.3315 28.4191 53.1237 28.3462 52.6138L24.6339 53.1441C25.1438 56.7131 29.5093 58.1683 32.0586 55.619L29.4069 52.9674ZM40.0135 47.6641C40.9872 46.6903 41.4457 45.315 41.2509 43.9517L37.5386 44.4821C37.5665 44.6768 37.501 44.8733 37.3619 45.0124L40.0135 47.6641ZM12.6131 20.2637L4.65811 28.2187L7.30976 30.8703L15.2647 22.9154L12.6131 20.2637ZM7.13299 35.6433L14.5576 36.704L15.0879 32.9916L7.66332 31.931L7.13299 35.6433ZM21.2751 19.7334L16.3254 19.0263L15.795 22.7386L20.7448 23.4457L21.2751 19.7334ZM4.65811 28.2187C2.10885 30.7679 3.56403 35.1334 7.13299 35.6433L7.66332 31.931C7.15347 31.8581 6.94559 31.2345 7.30976 30.8703L4.65811 28.2187ZM15.2647 22.9154C15.4038 22.7763 15.6003 22.7108 15.795 22.7386L16.3254 19.0263C14.9622 18.8315 13.5868 19.29 12.6131 20.2637L15.2647 22.9154Z" fill="#4F77FF"/>
</svg>
