<svg width="119" height="100" viewBox="0 0 119 100" fill="none" xmlns="http://www.w3.org/2000/svg">
<path opacity="0.1" d="M105.69 14.7157V73.6448C105.69 75.5639 104.133 77.1215 102.213 77.1215H16.4561C14.537 77.1215 12.9795 75.5639 12.9795 73.6448V14.7157C12.9795 12.7966 14.537 11.239 16.4561 11.239H102.213C104.133 11.239 105.69 12.7966 105.69 14.7157Z" fill="url(#paint0_linear_1_462)"/>
<path d="M72.479 98.8411H46.1909L51.4476 78.0044H67.2223L72.479 98.8411Z" fill="white"/>
<path d="M105.69 19.5853V78.5145C105.69 80.4336 104.133 81.9911 102.213 81.9911H16.4561C14.537 81.9911 12.9795 80.4336 12.9795 78.5145V19.5853C12.9795 17.6662 14.537 16.1086 16.4561 16.1086H102.213C104.133 16.1086 105.69 17.6662 105.69 19.5853Z" fill="white"/>
<path d="M99.2008 70.3095H49.6006V34.6321C49.6006 34.2473 49.9112 33.9368 50.2959 33.9368H98.5054C98.8902 33.9368 99.2008 34.2473 99.2008 34.6321V70.3095Z" fill="white"/>
<path d="M99.2008 38.8296H49.6006V34.6321C49.6006 34.2473 49.9112 33.9368 50.2959 33.9368H98.5054C98.8902 33.9368 99.2008 34.2473 99.2008 34.6321V38.8296Z" fill="#6583FE" fill-opacity="0.3"/>
<path fill-rule="evenodd" clip-rule="evenodd" d="M50.7592 35.0956V69.1505H98.0416V35.0956H50.7592ZM48.4414 34.632C48.4414 33.6073 49.2708 32.7778 50.2956 32.7778H98.5051C99.5299 32.7778 100.359 33.6073 100.359 34.632V71.4683H48.4414V34.632Z" fill="url(#paint1_linear_1_462)"/>
<path d="M105.69 27.2733V19.5853C105.69 17.6662 104.133 16.1086 102.213 16.1086H16.4561C14.537 16.1086 12.9795 17.6662 12.9795 19.5853V27.2733H105.69Z" fill="white"/>
<path d="M12.9795 70.3096V78.5121C12.9795 80.4313 14.537 81.9888 16.4561 81.9888H102.213C104.133 81.9888 105.69 80.4313 105.69 78.5121V70.3096H12.9795Z" fill="white"/>
<path d="M21.8059 20.5146C21.1662 20.5146 20.647 21.0338 20.647 21.6735V21.7083C20.647 22.348 21.1662 22.8672 21.8059 22.8672C22.4456 22.8672 22.9647 22.348 22.9647 21.7083V21.6735C22.9647 21.0338 22.4456 20.5146 21.8059 20.5146Z" fill="url(#paint2_linear_1_462)"/>
<path d="M26.2858 20.5146C25.6461 20.5146 25.127 21.0338 25.127 21.6735V21.7083C25.127 22.348 25.6461 22.8672 26.2858 22.8672C26.9255 22.8672 27.4447 22.348 27.4447 21.7083V21.6735C27.4447 21.0338 26.9255 20.5146 26.2858 20.5146Z" fill="url(#paint3_linear_1_462)"/>
<path d="M30.7639 20.5146C30.1242 20.5146 29.605 21.0338 29.605 21.6735V21.7083C29.605 22.348 30.1242 22.8672 30.7639 22.8672C31.4036 22.8672 31.9227 22.348 31.9227 21.7083V21.6735C31.9227 21.0338 31.4036 20.5146 30.7639 20.5146Z" fill="url(#paint4_linear_1_462)"/>
<path d="M102.214 14.9497H16.4563C13.8998 14.9497 11.8208 17.0287 11.8208 19.5852V27.2733C11.8208 27.913 12.34 28.4321 12.9797 28.4321H104.531V69.153H14.1386V33.6564C14.1386 33.0167 13.6194 32.4975 12.9797 32.4975C12.34 32.4975 11.8208 33.0167 11.8208 33.6564V78.5121C11.8208 81.0686 13.8998 83.1476 16.4563 83.1476H48.9537L45.287 97.68H41.7339C41.0942 97.68 40.575 98.1992 40.575 98.8389C40.575 99.4786 41.0942 99.9978 41.7339 99.9978H46.1886C46.7194 99.9978 47.183 99.6362 47.3127 99.1217L51.3433 83.1453H67.322L70.9887 97.6777L52.5718 97.68C51.9321 97.68 51.4129 98.1992 51.4129 98.8389C51.4129 99.4786 51.9321 99.9978 52.5718 99.9978L76.9315 99.9955C77.5712 99.9955 78.0904 99.4763 78.0904 98.8366C78.0904 98.1969 77.5712 97.6777 76.9315 97.6777H73.3807L69.714 83.1453H102.214C104.77 83.1453 106.849 81.0663 106.849 78.5098V19.5852C106.849 17.0287 104.77 14.9497 102.214 14.9497ZM14.1386 26.1144V19.5852C14.1386 18.3081 15.1792 17.2675 16.4563 17.2675H102.214C103.491 17.2675 104.531 18.3081 104.531 19.5852V26.1144H14.1386ZM102.214 80.8299H16.4563C15.1792 80.8299 14.1386 79.7892 14.1386 78.5121V71.4684H104.531V78.5121C104.531 79.7915 103.493 80.8299 102.214 80.8299Z" fill="url(#paint5_linear_1_462)"/>
<path d="M33.1487 52.421C38.2869 52.421 42.4522 48.2557 42.4522 43.1175C42.4522 37.9793 38.2869 33.814 33.1487 33.814C28.0105 33.814 23.8452 37.9793 23.8452 43.1175C23.8452 48.2557 28.0105 52.421 33.1487 52.421Z" fill="#6583FE" fill-opacity="0.3"/>
<path d="M37.0102 41.7778C37.0102 39.6547 35.2834 37.928 33.1604 37.928C31.0373 37.928 29.3105 39.6547 29.3105 41.7778C29.3105 42.8254 29.7324 43.7757 30.4115 44.4687C29.7301 45.164 29.3105 46.1143 29.3105 47.1596C29.3105 47.7993 29.8297 48.3185 30.4694 48.3185C31.1091 48.3185 31.6283 47.7993 31.6283 47.1596C31.6283 46.3137 32.3167 45.6276 33.1604 45.6276C34.004 45.6276 34.6924 46.316 34.6924 47.1596C34.6924 47.7993 35.2116 48.3185 35.8513 48.3185C36.491 48.3185 37.0102 47.7993 37.0102 47.1596C37.0102 46.112 36.5883 45.1617 35.9069 44.4687C36.5883 43.7757 37.0102 42.8254 37.0102 41.7778ZM33.1604 40.2457C34.0063 40.2457 34.6924 40.9341 34.6924 41.7778C34.6924 42.6215 34.004 43.3098 33.1604 43.3098C32.3167 43.3098 31.6283 42.6215 31.6283 41.7778C31.6283 40.9341 32.3144 40.2457 33.1604 40.2457Z" fill="url(#paint6_linear_1_462)"/>
<path d="M89.3107 50.0707H59.4903C57.6755 50.0707 56.2061 48.599 56.2061 46.7865C56.2061 44.9717 57.6778 43.5022 59.4903 43.5022H89.3084C91.1232 43.5022 92.5927 44.974 92.5927 46.7865C92.5927 48.599 91.1255 50.0707 89.3107 50.0707Z" fill="#6583FE" fill-opacity="0.3"/>
<path d="M70.4812 48.1332C71.1967 48.1332 71.7768 47.5532 71.7768 46.8376C71.7768 46.1221 71.1967 45.542 70.4812 45.542C69.7656 45.542 69.1855 46.1221 69.1855 46.8376C69.1855 47.5532 69.7656 48.1332 70.4812 48.1332Z" fill="url(#paint7_linear_1_462)"/>
<path d="M74.4006 48.1332C75.1162 48.1332 75.6962 47.5532 75.6962 46.8376C75.6962 46.1221 75.1162 45.542 74.4006 45.542C73.6851 45.542 73.105 46.1221 73.105 46.8376C73.105 47.5532 73.6851 48.1332 74.4006 48.1332Z" fill="url(#paint8_linear_1_462)"/>
<path d="M78.32 45.542C79.0362 45.542 79.6157 46.1214 79.6157 46.8376C79.6157 47.5538 79.0362 48.1332 78.32 48.1332C77.6039 48.1332 77.0244 47.5538 77.0244 46.8376C77.0244 46.1214 77.6039 45.542 78.32 45.542Z" fill="url(#paint9_linear_1_462)"/>
<path d="M89.3107 59.226H59.4903C57.6755 59.226 56.2061 57.7542 56.2061 55.9417C56.2061 54.1269 57.6778 52.6575 59.4903 52.6575H89.3084C91.1232 52.6575 92.5927 54.1293 92.5927 55.9417C92.5927 57.7542 91.1255 59.226 89.3107 59.226Z" fill="#6583FE" fill-opacity="0.3"/>
<path d="M70.4812 57.2883C71.1967 57.2883 71.7768 56.7082 71.7768 55.9927C71.7768 55.2771 71.1967 54.697 70.4812 54.697C69.7656 54.697 69.1855 55.2771 69.1855 55.9927C69.1855 56.7082 69.7656 57.2883 70.4812 57.2883Z" fill="url(#paint10_linear_1_462)"/>
<path d="M74.4006 57.2883C75.1162 57.2883 75.6962 56.7082 75.6962 55.9927C75.6962 55.2771 75.1162 54.697 74.4006 54.697C73.6851 54.697 73.105 55.2771 73.105 55.9927C73.105 56.7082 73.6851 57.2883 74.4006 57.2883Z" fill="url(#paint11_linear_1_462)"/>
<path d="M78.32 54.697C79.0362 54.697 79.6157 55.2765 79.6157 55.9927C79.6157 56.7089 79.0362 57.2883 78.32 57.2883C77.6039 57.2883 77.0244 56.7089 77.0244 55.9927C77.0244 55.2765 77.6039 54.697 78.32 54.697Z" fill="url(#paint12_linear_1_462)"/>
<path d="M79.0127 66.1398H69.8413C69.4566 66.1398 69.146 65.8292 69.146 65.4445V62.7791C69.146 62.3943 69.4566 62.0837 69.8413 62.0837H79.0127C79.3975 62.0837 79.7081 62.3943 79.7081 62.7791V65.4445C79.7081 65.8292 79.3952 66.1398 79.0127 66.1398Z" fill="#6583FE"/>
<path d="M40.8761 58.3661H25.4421C24.7861 58.3661 24.2554 57.8353 24.2554 57.1794C24.2554 56.5234 24.7861 55.9927 25.4421 55.9927H40.8761C41.532 55.9927 42.0628 56.5234 42.0628 57.1794C42.0628 57.8353 41.532 58.3661 40.8761 58.3661Z" fill="url(#paint13_linear_1_462)"/>
<path d="M36.7045 62.7699H29.6144C28.9585 62.7699 28.4277 62.2391 28.4277 61.5832C28.4277 60.9273 28.9585 60.3965 29.6144 60.3965H36.7045C37.3604 60.3965 37.8912 60.9273 37.8912 61.5832C37.8912 62.2391 37.3604 62.7699 36.7045 62.7699Z" fill="url(#paint14_linear_1_462)"/>
<path d="M86.7335 95.7469C86.4369 95.7469 86.1402 95.6333 85.9131 95.4085L83.3658 92.8613C82.9139 92.4093 82.9139 91.6746 83.3658 91.2226L85.9131 88.6754C86.365 88.2234 87.0997 88.2234 87.5517 88.6754L90.0989 91.2226C90.5509 91.6746 90.5509 92.4093 90.0989 92.8613L87.5517 95.4085C87.3269 95.6333 87.0302 95.7469 86.7335 95.7469ZM85.825 92.0408L86.7335 92.9493L87.6421 92.0408L86.7335 91.1322L85.825 92.0408Z" fill="#6583FE"/>
<path d="M30.4674 12.7849C30.1708 12.7849 29.8741 12.6713 29.6469 12.4465L27.0997 9.89693C26.6478 9.44496 26.6478 8.71023 27.0997 8.25827L29.6469 5.71104C30.0989 5.25908 30.8336 5.25908 31.2856 5.71104L33.8328 8.25827C34.2848 8.71023 34.2848 9.44496 33.8328 9.89693L31.2879 12.4465C31.0608 12.6736 30.7641 12.7849 30.4674 12.7849ZM29.5589 9.07876L30.4674 9.98732L31.376 9.07876L30.4674 8.17019L29.5589 9.07876Z" fill="#6583FE"/>
<path d="M42.0631 7.41463C41.7665 7.41463 41.4698 7.30106 41.2426 7.07623L38.6954 4.52901C38.2435 4.07704 38.2435 3.34231 38.6954 2.89035L41.2426 0.343124C41.6946 -0.108841 42.4293 -0.108841 42.8813 0.343124L45.4285 2.89035C45.8805 3.34231 45.8805 4.07704 45.4285 4.52901L42.8813 7.07623C42.6565 7.30106 42.3598 7.41463 42.0631 7.41463ZM41.1546 3.7062L42.0631 4.61477L42.9717 3.7062L42.0631 2.79764L41.1546 3.7062Z" fill="#6583FE"/>
<path d="M95.1491 8.68931C94.5094 8.68931 93.9902 8.17013 93.9902 7.53042C93.9902 6.76092 93.3644 6.13513 92.5949 6.13513C91.9552 6.13513 91.436 5.61595 91.436 4.97624C91.436 4.33654 91.9552 3.81736 92.5949 3.81736C93.3644 3.81736 93.9902 3.19156 93.9902 2.42207C93.9902 1.78236 94.5094 1.26318 95.1491 1.26318C95.7888 1.26318 96.308 1.78236 96.308 2.42207C96.308 3.19156 96.9338 3.81736 97.7033 3.81736C98.343 3.81736 98.8622 4.33654 98.8622 4.97624C98.8622 5.61595 98.343 6.13513 97.7033 6.13513C96.9338 6.13513 96.308 6.76092 96.308 7.53042C96.308 8.17013 95.7888 8.68931 95.1491 8.68931Z" fill="#6583FE"/>
<defs>
<linearGradient id="paint0_linear_1_462" x1="101.816" y1="11.239" x2="96.6418" y2="83.1415" gradientUnits="userSpaceOnUse">
<stop stop-color="#61DCDF"/>
<stop offset="1" stop-color="#886CFF"/>
</linearGradient>
<linearGradient id="paint1_linear_1_462" x1="98.1896" y1="32.7778" x2="95.0049" y2="74.982" gradientUnits="userSpaceOnUse">
<stop stop-color="#61DCDF"/>
<stop offset="1" stop-color="#886CFF"/>
</linearGradient>
<linearGradient id="paint2_linear_1_462" x1="22.8679" y1="20.5146" x2="22.6054" y2="23.0685" gradientUnits="userSpaceOnUse">
<stop stop-color="#61DCDF"/>
<stop offset="1" stop-color="#886CFF"/>
</linearGradient>
<linearGradient id="paint3_linear_1_462" x1="27.3479" y1="20.5146" x2="27.0854" y2="23.0685" gradientUnits="userSpaceOnUse">
<stop stop-color="#61DCDF"/>
<stop offset="1" stop-color="#886CFF"/>
</linearGradient>
<linearGradient id="paint4_linear_1_462" x1="31.8259" y1="20.5146" x2="31.5634" y2="23.0685" gradientUnits="userSpaceOnUse">
<stop stop-color="#61DCDF"/>
<stop offset="1" stop-color="#886CFF"/>
</linearGradient>
<linearGradient id="paint5_linear_1_462" x1="102.878" y1="14.9497" x2="94.4916" y2="107.49" gradientUnits="userSpaceOnUse">
<stop stop-color="#61DCDF"/>
<stop offset="1" stop-color="#886CFF"/>
</linearGradient>
<linearGradient id="paint6_linear_1_462" x1="36.6884" y1="37.928" x2="35.1593" y2="49.1177" gradientUnits="userSpaceOnUse">
<stop stop-color="#61DCDF"/>
<stop offset="1" stop-color="#886CFF"/>
</linearGradient>
<linearGradient id="paint7_linear_1_462" x1="71.6685" y1="45.542" x2="71.3836" y2="48.3558" gradientUnits="userSpaceOnUse">
<stop stop-color="#61DCDF"/>
<stop offset="1" stop-color="#886CFF"/>
</linearGradient>
<linearGradient id="paint8_linear_1_462" x1="75.588" y1="45.542" x2="75.303" y2="48.3558" gradientUnits="userSpaceOnUse">
<stop stop-color="#61DCDF"/>
<stop offset="1" stop-color="#886CFF"/>
</linearGradient>
<linearGradient id="paint9_linear_1_462" x1="79.5074" y1="45.542" x2="79.2225" y2="48.3558" gradientUnits="userSpaceOnUse">
<stop stop-color="#61DCDF"/>
<stop offset="1" stop-color="#886CFF"/>
</linearGradient>
<linearGradient id="paint10_linear_1_462" x1="71.6685" y1="54.697" x2="71.3836" y2="57.5109" gradientUnits="userSpaceOnUse">
<stop stop-color="#61DCDF"/>
<stop offset="1" stop-color="#886CFF"/>
</linearGradient>
<linearGradient id="paint11_linear_1_462" x1="75.588" y1="54.697" x2="75.303" y2="57.5109" gradientUnits="userSpaceOnUse">
<stop stop-color="#61DCDF"/>
<stop offset="1" stop-color="#886CFF"/>
</linearGradient>
<linearGradient id="paint12_linear_1_462" x1="79.5074" y1="54.697" x2="79.2225" y2="57.5109" gradientUnits="userSpaceOnUse">
<stop stop-color="#61DCDF"/>
<stop offset="1" stop-color="#886CFF"/>
</linearGradient>
<linearGradient id="paint13_linear_1_462" x1="41.3186" y1="55.9927" x2="41.2834" y2="58.5959" gradientUnits="userSpaceOnUse">
<stop stop-color="#61DCDF"/>
<stop offset="1" stop-color="#886CFF"/>
</linearGradient>
<linearGradient id="paint14_linear_1_462" x1="37.4957" y1="60.3965" x2="37.4296" y2="62.9985" gradientUnits="userSpaceOnUse">
<stop stop-color="#61DCDF"/>
<stop offset="1" stop-color="#886CFF"/>
</linearGradient>
</defs>
</svg>
