<svg width="113" height="100" viewBox="0 0 113 100" fill="none" xmlns="http://www.w3.org/2000/svg">
<g clip-path="url(#clip0_1_331)">
<g opacity="0.1">
<path opacity="0.1" d="M95.9202 0H16.2086C14.7896 0 13.6401 1.14951 13.6401 2.56844V12.8551C13.6401 14.274 14.7896 15.4235 16.2086 15.4235H95.9202C97.3391 15.4235 98.4886 14.274 98.4886 12.8551V2.56844C98.4886 1.14951 97.3391 0 95.9202 0Z" fill="url(#paint0_linear_1_331)"/>
<path opacity="0.1" d="M95.9202 24.8325H16.2086C14.7896 24.8325 13.6401 25.982 13.6401 27.401V37.685C13.6401 39.1039 14.7896 40.2535 16.2086 40.2535H95.9202C97.3391 40.2535 98.4886 39.1039 98.4886 37.685V27.401C98.4886 25.982 97.3391 24.8325 95.9202 24.8325Z" fill="url(#paint1_linear_1_331)"/>
<path opacity="0.1" d="M95.9202 49.665H16.2086C14.7896 49.665 13.6401 50.8146 13.6401 52.2335V62.5175C13.6401 63.9365 14.7896 65.086 16.2086 65.086H95.9202C97.3391 65.086 98.4886 63.9365 98.4886 62.5175V52.2335C98.4886 50.8146 97.3391 49.665 95.9202 49.665Z" fill="url(#paint2_linear_1_331)"/>
<path opacity="0.1" d="M75.201 83.0652H36.9283C35.5094 83.0652 34.3599 84.2147 34.3599 85.6336V90.7577C34.3599 92.1766 35.5094 93.3261 36.9283 93.3261H75.201C76.6199 93.3261 77.7694 92.1766 77.7694 90.7577V85.6336C77.7694 84.2147 76.6199 83.0652 75.201 83.0652Z" fill="url(#paint3_linear_1_331)"/>
</g>
<path d="M59.8749 68.0959V75.0315C59.8749 76.4505 58.7254 77.6 57.3065 77.6H54.8253C53.4038 77.6 52.2568 76.4505 52.2568 75.0315V68.0959H59.8749Z" fill="white"/>
<path d="M18.2202 17.2991H93.9085V59.0793H18.2202V17.2991Z" fill="#6583FE" fill-opacity="0.1"/>
<path d="M95.9202 20.8119H16.2086C14.7896 20.8119 13.6401 19.6624 13.6401 18.2435V7.95687C13.6401 6.53794 14.7896 5.38843 16.2086 5.38843H95.9202C97.3391 5.38843 98.4886 6.53794 98.4886 7.95687V18.2435C98.4886 19.6598 97.3391 20.8119 95.9202 20.8119Z" fill="white"/>
<path d="M25.1766 14.5356C25.9702 14.5356 26.6135 13.8923 26.6135 13.0988C26.6135 12.3052 25.9702 11.6619 25.1766 11.6619C24.3831 11.6619 23.7397 12.3052 23.7397 13.0988C23.7397 13.8923 24.3831 14.5356 25.1766 14.5356Z" fill="url(#paint4_linear_1_331)"/>
<path d="M29.5258 14.5356C30.3193 14.5356 30.9626 13.8923 30.9626 13.0988C30.9626 12.3052 30.3193 11.6619 29.5258 11.6619C28.7322 11.6619 28.0889 12.3052 28.0889 13.0988C28.0889 13.8923 28.7322 14.5356 29.5258 14.5356Z" fill="url(#paint5_linear_1_331)"/>
<path d="M33.8749 14.5356C34.6685 14.5356 35.3118 13.8923 35.3118 13.0988C35.3118 12.3052 34.6685 11.6619 33.8749 11.6619C33.0813 11.6619 32.438 12.3052 32.438 13.0988C32.438 13.8923 33.0813 14.5356 33.8749 14.5356Z" fill="url(#paint6_linear_1_331)"/>
<path d="M62.9951 11.8132H43.284C42.6117 11.8132 42.0113 12.3033 41.9471 12.973C41.8727 13.7402 42.4757 14.3868 43.2275 14.3868H62.9925C63.7032 14.3868 64.278 13.8095 64.278 13.1013C64.2806 12.3906 63.7032 11.8132 62.9951 11.8132Z" fill="url(#paint7_linear_1_331)"/>
<path d="M88.5512 11.8132H68.8401C68.1679 11.8132 67.5674 12.3033 67.5033 12.973C67.4289 13.7402 68.0319 14.3868 68.7837 14.3868H88.5486C89.2594 14.3868 89.8341 13.8095 89.8341 13.1013C89.8393 12.3906 89.2619 11.8132 88.5512 11.8132Z" fill="url(#paint8_linear_1_331)"/>
<path d="M95.9202 45.6418H16.2086C14.7896 45.6418 13.6401 44.4923 13.6401 43.0733V32.7867C13.6401 31.3678 14.7896 30.2183 16.2086 30.2183H95.9202C97.3391 30.2183 98.4886 31.3678 98.4886 32.7867V43.0708C98.4886 44.4923 97.3391 45.6418 95.9202 45.6418Z" fill="white"/>
<path d="M25.1766 39.3682C25.9702 39.3682 26.6135 38.7249 26.6135 37.9313C26.6135 37.1377 25.9702 36.4944 25.1766 36.4944C24.3831 36.4944 23.7397 37.1377 23.7397 37.9313C23.7397 38.7249 24.3831 39.3682 25.1766 39.3682Z" fill="url(#paint9_linear_1_331)"/>
<path d="M29.5258 39.3682C30.3193 39.3682 30.9626 38.7249 30.9626 37.9313C30.9626 37.1377 30.3193 36.4944 29.5258 36.4944C28.7322 36.4944 28.0889 37.1377 28.0889 37.9313C28.0889 38.7249 28.7322 39.3682 29.5258 39.3682Z" fill="url(#paint10_linear_1_331)"/>
<path d="M33.8749 39.3682C34.6685 39.3682 35.3118 38.7249 35.3118 37.9313C35.3118 37.1377 34.6685 36.4944 33.8749 36.4944C33.0813 36.4944 32.438 37.1377 32.438 37.9313C32.438 38.7249 33.0813 39.3682 33.8749 39.3682Z" fill="url(#paint11_linear_1_331)"/>
<path d="M62.9951 36.6458H43.284C42.6117 36.6458 42.0113 37.1358 41.9471 37.8055C41.8727 38.5727 42.4757 39.2193 43.2275 39.2193H62.9925C63.7032 39.2193 64.278 38.6446 64.278 37.9338C64.2806 37.2205 63.7032 36.6458 62.9951 36.6458Z" fill="url(#paint12_linear_1_331)"/>
<path d="M88.5512 36.6458H68.8401C68.1679 36.6458 67.5674 37.1358 67.5033 37.8055C67.4289 38.5727 68.0319 39.2193 68.7837 39.2193H88.5486C89.2594 39.2193 89.8341 38.6446 89.8341 37.9338C89.8393 37.2205 89.2619 36.6458 88.5512 36.6458Z" fill="url(#paint13_linear_1_331)"/>
<path d="M95.9202 70.4745H16.2086C14.7896 70.4745 13.6401 69.325 13.6401 67.9061V57.6195C13.6401 56.2005 14.7896 55.051 16.2086 55.051H95.9202C97.3391 55.051 98.4886 56.2005 98.4886 57.6195V67.9061C98.4886 69.325 97.3391 70.4745 95.9202 70.4745Z" fill="white"/>
<path d="M25.1766 64.2009C25.9702 64.2009 26.6135 63.5576 26.6135 62.764C26.6135 61.9705 25.9702 61.3271 25.1766 61.3271C24.3831 61.3271 23.7397 61.9705 23.7397 62.764C23.7397 63.5576 24.3831 64.2009 25.1766 64.2009Z" fill="url(#paint14_linear_1_331)"/>
<path d="M29.5258 64.2009C30.3193 64.2009 30.9626 63.5576 30.9626 62.764C30.9626 61.9705 30.3193 61.3271 29.5258 61.3271C28.7322 61.3271 28.0889 61.9705 28.0889 62.764C28.0889 63.5576 28.7322 64.2009 29.5258 64.2009Z" fill="url(#paint15_linear_1_331)"/>
<path d="M33.8749 64.2009C34.6685 64.2009 35.3118 63.5576 35.3118 62.764C35.3118 61.9705 34.6685 61.3271 33.8749 61.3271C33.0813 61.3271 32.438 61.9705 32.438 62.764C32.438 63.5576 33.0813 64.2009 33.8749 64.2009Z" fill="url(#paint16_linear_1_331)"/>
<path d="M62.9951 61.4785H43.284C42.6117 61.4785 42.0113 61.9686 41.9471 62.6383C41.8727 63.4055 42.4757 64.0521 43.2275 64.0521H62.9925C63.7032 64.0521 64.278 63.4773 64.278 62.7666C64.2806 62.0533 63.7032 61.4785 62.9951 61.4785Z" fill="url(#paint17_linear_1_331)"/>
<path d="M88.5512 61.4785H68.8401C68.1679 61.4785 67.5674 61.9686 67.5033 62.6383C67.4289 63.4055 68.0319 64.0521 68.7837 64.0521H88.5486C89.2594 64.0521 89.8341 63.4773 89.8341 62.7666C89.8393 62.0533 89.2619 61.4785 88.5512 61.4785Z" fill="url(#paint18_linear_1_331)"/>
<path d="M75.201 98.717H36.9283C35.5094 98.717 34.3599 97.5675 34.3599 96.1486V91.0245C34.3599 89.6056 35.5094 88.4561 36.9283 88.4561H75.201C76.6199 88.4561 77.7694 89.6056 77.7694 91.0245V96.1486C77.7694 97.5649 76.6199 98.717 75.201 98.717Z" fill="white"/>
<path d="M110.02 92.3024H79.0525V91.022C79.0525 88.8975 77.3256 87.1707 75.2011 87.1707H63.1389C62.4307 87.1707 61.856 87.7454 61.856 88.4536C61.856 89.1618 62.4307 89.7365 63.1389 89.7365H75.2011C75.9093 89.7365 76.4866 90.3139 76.4866 91.022V96.1461C76.4866 96.8543 75.9093 97.4316 75.2011 97.4316H36.9285C36.2203 97.4316 35.6429 96.8543 35.6429 96.1461V91.022C35.6429 90.3139 36.2203 89.7365 36.9285 89.7365H56.0648C56.773 89.7365 57.3477 89.1618 57.3477 88.4536V78.8803C59.4517 78.8572 61.1581 77.1406 61.1581 75.0315V71.7574H95.9206C98.0451 71.7574 99.772 70.0306 99.772 67.906V57.622C99.772 55.4975 98.0451 53.7706 95.9206 53.7706H95.1919V46.9274H95.9206C98.0451 46.9274 99.772 45.2006 99.772 43.076V32.7894C99.772 30.6649 98.0451 28.938 95.9206 28.938H95.1919V22.0948H95.9206C98.0451 22.0948 99.772 20.368 99.772 18.2435V7.95685C99.772 5.83231 98.0451 4.10547 95.9206 4.10547H16.209C14.0844 4.10547 12.3576 5.83231 12.3576 7.95685V18.2435C12.3576 20.368 14.0844 22.0948 16.209 22.0948H16.9377V28.938H16.209C14.0844 28.938 12.3576 30.6649 12.3576 32.7894V43.0735C12.3576 45.198 14.0844 46.9249 16.209 46.9249H16.9377V53.7681H16.209C14.0844 53.7681 12.3576 55.4949 12.3576 57.6194V67.906C12.3576 70.0306 14.0844 71.7574 16.209 71.7574H50.9715V75.0315C50.9715 77.1406 52.6778 78.8572 54.7818 78.8803V87.1707H36.9285C34.8039 87.1707 33.0771 88.8975 33.0771 91.022V92.3024H2.11204C1.40386 92.3024 0.829102 92.8772 0.829102 93.5854C0.829102 94.2935 1.40386 94.8683 2.11204 94.8683H33.0796V96.1487C33.0796 98.2732 34.8065 100 36.931 100H75.2037C77.3282 100 79.0551 98.2732 79.0551 96.1487V94.8683H110.023C110.731 94.8683 111.306 94.2935 111.306 93.5854C111.303 92.8772 110.728 92.3024 110.02 92.3024ZM14.9235 18.2435V7.95685C14.9235 7.24867 15.5008 6.67135 16.209 6.67135H95.9206C96.6288 6.67135 97.2061 7.24867 97.2061 7.95685V18.2435C97.2061 18.9516 96.6288 19.529 95.9206 19.529H16.209C15.5008 19.529 14.9235 18.9516 14.9235 18.2435ZM14.9235 43.0735V32.7894C14.9235 32.0812 15.5008 31.5039 16.209 31.5039H18.2206C18.9288 31.5039 19.5036 30.9292 19.5036 30.221C19.5036 30.2184 19.5036 30.2159 19.5036 30.2133V22.0948H92.626V28.938H25.2948C24.5866 28.938 24.0118 29.5128 24.0118 30.221C24.0118 30.9292 24.5866 31.5039 25.2948 31.5039H95.9206C96.6288 31.5039 97.2061 32.0812 97.2061 32.7894V43.0735C97.2061 43.7817 96.6288 44.359 95.9206 44.359H16.209C15.5008 44.359 14.9235 43.7842 14.9235 43.0735ZM19.5036 46.9249H92.626V53.7681H19.5036V46.9249ZM14.9235 67.906V57.622C14.9235 56.9138 15.5008 56.3365 16.209 56.3365H95.9206C96.6288 56.3365 97.2061 56.9138 97.2061 57.622V67.906C97.2061 68.6142 96.6288 69.1916 95.9206 69.1916H16.209C15.5008 69.1916 14.9235 68.6168 14.9235 67.906ZM53.5374 75.0315V71.7574H58.5922V75.0315C58.5922 75.7397 58.0148 76.317 57.3067 76.317H54.8229C54.1147 76.317 53.5374 75.7397 53.5374 75.0315Z" fill="url(#paint19_linear_1_331)"/>
<path d="M94.6527 86.08C93.9445 86.08 93.3697 85.5052 93.3697 84.797C93.3697 83.9452 92.6769 83.2498 91.8225 83.2498C91.1143 83.2498 90.5396 82.675 90.5396 81.9669C90.5396 81.2587 91.1143 80.6839 91.8225 80.6839C92.6744 80.6839 93.3697 79.9911 93.3697 79.1367C93.3697 78.4285 93.9445 77.8538 94.6527 77.8538C95.3608 77.8538 95.9356 78.4285 95.9356 79.1367C95.9356 79.9886 96.6284 80.6839 97.4828 80.6839C98.191 80.6839 98.7658 81.2587 98.7658 81.9669C98.7658 82.675 98.191 83.2498 97.4828 83.2498C96.631 83.2498 95.9356 83.9426 95.9356 84.797C95.9356 85.5052 95.3608 86.08 94.6527 86.08Z" fill="#6583FE"/>
<path d="M108.016 74.9826C107.308 74.9826 106.733 74.4078 106.733 73.6996C106.733 72.8477 106.04 72.1524 105.186 72.1524C104.478 72.1524 103.903 71.5776 103.903 70.8695C103.903 70.1613 104.478 69.5865 105.186 69.5865C106.038 69.5865 106.733 68.8937 106.733 68.0393C106.733 67.3311 107.308 66.7563 108.016 66.7563C108.724 66.7563 109.299 67.3311 109.299 68.0393C109.299 68.8912 109.992 69.5865 110.846 69.5865C111.554 69.5865 112.129 70.1613 112.129 70.8695C112.129 71.5776 111.554 72.1524 110.846 72.1524C109.994 72.1524 109.299 72.8452 109.299 73.6996C109.299 74.4078 108.727 74.9826 108.016 74.9826Z" fill="#6583FE"/>
<path d="M4.10813 30.8368C3.77969 30.8368 3.45126 30.7111 3.1998 30.4622L0.374772 27.6372C-0.125575 27.1368 -0.125575 26.3234 0.374772 25.8231L3.1998 22.9981C3.70015 22.4977 4.51353 22.4977 5.01388 22.9981L7.83891 25.8231C8.33926 26.3234 8.33926 27.1368 7.83891 27.6372L5.01388 30.4622C4.76499 30.7111 4.43656 30.8368 4.10813 30.8368ZM3.09717 26.7289L4.10813 27.7372L5.11908 26.7289L4.10813 25.7205L3.09717 26.7289Z" fill="#6583FE"/>
<path d="M8.91135 87.8197C8.58292 87.8197 8.25448 87.694 8.00303 87.4451L5.17799 84.6201C4.67765 84.1197 4.67765 83.3064 5.17799 82.806L8.00303 79.981C8.50337 79.4806 9.31676 79.4806 9.8171 79.981L12.6421 82.806C13.1425 83.3064 13.1425 84.1197 12.6421 84.6201L9.81967 87.4451C9.56821 87.6966 9.23978 87.8197 8.91135 87.8197ZM7.90296 83.7143L8.91135 84.7227L9.91974 83.7143L8.91135 82.7059L7.90296 83.7143Z" fill="#6583FE"/>
</g>
<defs>
<linearGradient id="paint0_linear_1_331" x1="94.9427" y1="9.0165e-08" x2="94.6314" y2="16.9143" gradientUnits="userSpaceOnUse">
<stop stop-color="#61DCDF"/>
<stop offset="1" stop-color="#886CFF"/>
</linearGradient>
<linearGradient id="paint1_linear_1_331" x1="94.9427" y1="24.8325" x2="94.6315" y2="41.744" gradientUnits="userSpaceOnUse">
<stop stop-color="#61DCDF"/>
<stop offset="1" stop-color="#886CFF"/>
</linearGradient>
<linearGradient id="paint2_linear_1_331" x1="94.9427" y1="49.665" x2="94.6315" y2="66.5765" gradientUnits="userSpaceOnUse">
<stop stop-color="#61DCDF"/>
<stop offset="1" stop-color="#886CFF"/>
</linearGradient>
<linearGradient id="paint3_linear_1_331" x1="75.9553" y1="83.0652" x2="75.686" y2="94.3153" gradientUnits="userSpaceOnUse">
<stop stop-color="#61DCDF"/>
<stop offset="1" stop-color="#886CFF"/>
</linearGradient>
<linearGradient id="paint4_linear_1_331" x1="26.4934" y1="11.6619" x2="26.1774" y2="14.7825" gradientUnits="userSpaceOnUse">
<stop stop-color="#61DCDF"/>
<stop offset="1" stop-color="#886CFF"/>
</linearGradient>
<linearGradient id="paint5_linear_1_331" x1="30.8425" y1="11.6619" x2="30.5266" y2="14.7825" gradientUnits="userSpaceOnUse">
<stop stop-color="#61DCDF"/>
<stop offset="1" stop-color="#886CFF"/>
</linearGradient>
<linearGradient id="paint6_linear_1_331" x1="35.1917" y1="11.6619" x2="34.8757" y2="14.7825" gradientUnits="userSpaceOnUse">
<stop stop-color="#61DCDF"/>
<stop offset="1" stop-color="#886CFF"/>
</linearGradient>
<linearGradient id="paint7_linear_1_331" x1="63.3445" y1="11.8132" x2="63.3116" y2="14.6361" gradientUnits="userSpaceOnUse">
<stop stop-color="#61DCDF"/>
<stop offset="1" stop-color="#886CFF"/>
</linearGradient>
<linearGradient id="paint8_linear_1_331" x1="88.9007" y1="11.8132" x2="88.8677" y2="14.6361" gradientUnits="userSpaceOnUse">
<stop stop-color="#61DCDF"/>
<stop offset="1" stop-color="#886CFF"/>
</linearGradient>
<linearGradient id="paint9_linear_1_331" x1="26.4934" y1="36.4944" x2="26.1774" y2="39.615" gradientUnits="userSpaceOnUse">
<stop stop-color="#61DCDF"/>
<stop offset="1" stop-color="#886CFF"/>
</linearGradient>
<linearGradient id="paint10_linear_1_331" x1="30.8425" y1="36.4944" x2="30.5266" y2="39.615" gradientUnits="userSpaceOnUse">
<stop stop-color="#61DCDF"/>
<stop offset="1" stop-color="#886CFF"/>
</linearGradient>
<linearGradient id="paint11_linear_1_331" x1="35.1917" y1="36.4944" x2="34.8757" y2="39.615" gradientUnits="userSpaceOnUse">
<stop stop-color="#61DCDF"/>
<stop offset="1" stop-color="#886CFF"/>
</linearGradient>
<linearGradient id="paint12_linear_1_331" x1="63.3445" y1="36.6458" x2="63.3116" y2="39.4687" gradientUnits="userSpaceOnUse">
<stop stop-color="#61DCDF"/>
<stop offset="1" stop-color="#886CFF"/>
</linearGradient>
<linearGradient id="paint13_linear_1_331" x1="88.9007" y1="36.6458" x2="88.8677" y2="39.4687" gradientUnits="userSpaceOnUse">
<stop stop-color="#61DCDF"/>
<stop offset="1" stop-color="#886CFF"/>
</linearGradient>
<linearGradient id="paint14_linear_1_331" x1="26.4934" y1="61.3271" x2="26.1774" y2="64.4478" gradientUnits="userSpaceOnUse">
<stop stop-color="#61DCDF"/>
<stop offset="1" stop-color="#886CFF"/>
</linearGradient>
<linearGradient id="paint15_linear_1_331" x1="30.8425" y1="61.3271" x2="30.5266" y2="64.4478" gradientUnits="userSpaceOnUse">
<stop stop-color="#61DCDF"/>
<stop offset="1" stop-color="#886CFF"/>
</linearGradient>
<linearGradient id="paint16_linear_1_331" x1="35.1917" y1="61.3271" x2="34.8757" y2="64.4478" gradientUnits="userSpaceOnUse">
<stop stop-color="#61DCDF"/>
<stop offset="1" stop-color="#886CFF"/>
</linearGradient>
<linearGradient id="paint17_linear_1_331" x1="63.3445" y1="61.4785" x2="63.3116" y2="64.3014" gradientUnits="userSpaceOnUse">
<stop stop-color="#61DCDF"/>
<stop offset="1" stop-color="#886CFF"/>
</linearGradient>
<linearGradient id="paint18_linear_1_331" x1="88.9007" y1="61.4785" x2="88.8677" y2="64.3014" gradientUnits="userSpaceOnUse">
<stop stop-color="#61DCDF"/>
<stop offset="1" stop-color="#886CFF"/>
</linearGradient>
<linearGradient id="paint19_linear_1_331" x1="106.689" y1="4.10547" x2="97.5133" y2="108.498" gradientUnits="userSpaceOnUse">
<stop stop-color="#61DCDF"/>
<stop offset="1" stop-color="#886CFF"/>
</linearGradient>
<clipPath id="clip0_1_331">
<rect width="112.129" height="100" fill="white"/>
</clipPath>
</defs>
</svg>
