<svg width="102" height="100" viewBox="0 0 102 100" fill="none" xmlns="http://www.w3.org/2000/svg">
<g clip-path="url(#clip0_1_499)">
<path opacity="0.1" d="M99.4951 58.3676L93.1666 56.565C92.5472 54.0377 91.5498 51.6575 90.2354 49.4894L93.4374 43.7352C93.7083 43.2457 93.6243 42.6344 93.2275 42.2373L88.9021 37.9096C88.5052 37.5146 87.8942 37.4285 87.405 37.6995L81.6538 40.9033C79.489 39.5903 77.11 38.5924 74.5841 37.9705L72.7825 31.6386C72.6292 31.0987 72.1358 30.7268 71.5752 30.7268H65.4587C64.8981 30.7268 64.4046 31.0987 64.2513 31.6386L62.4498 37.9705C59.9238 38.5903 57.5448 39.5882 55.38 40.9033L49.6289 37.6995C49.1397 37.4285 48.5286 37.5125 48.1318 37.9096L43.8064 42.2373C43.4116 42.6323 43.3255 43.2457 43.5964 43.7352L46.7985 49.4894C45.4862 51.6554 44.4888 54.0356 43.8673 56.5629L37.5387 58.3655C36.9991 58.5188 36.6274 59.0125 36.6274 59.5734V65.6932C36.6274 66.2541 36.9991 66.7478 37.5387 66.9012L43.8673 68.7037C44.4867 71.231 45.4841 73.6113 46.7985 75.7772L43.5964 81.5314C43.3255 82.0209 43.4095 82.6323 43.8064 83.0293L48.1318 87.3571C48.5265 87.7541 49.1397 87.8382 49.6289 87.5671L55.38 84.3634C57.5448 85.6764 59.9238 86.6743 62.4498 87.2961L64.2513 93.6281C64.4046 94.168 64.8981 94.5398 65.4587 94.5398H71.5752C72.1358 94.5398 72.6292 94.168 72.7825 93.6281L74.5841 87.2961C77.11 86.6764 79.489 85.6785 81.6538 84.3634L87.405 87.5671C87.8942 87.8382 88.5052 87.7541 88.9021 87.3571L93.2275 83.0293C93.6243 82.6323 93.7083 82.0209 93.4374 81.5314L90.2354 75.7772C91.5477 73.6113 92.5451 71.231 93.1666 68.7037L99.4951 66.9012C100.035 66.7478 100.406 66.2541 100.406 65.6932V59.5734C100.406 59.0125 100.035 58.5209 99.4951 58.3676ZM68.5201 78.3382C59.8524 78.3382 52.8226 71.3066 52.8226 62.6323C52.8226 53.9579 59.8503 46.9264 68.5201 46.9264C77.1898 46.9264 84.2176 53.9579 84.2176 62.6323C84.2176 71.3066 77.1877 78.3382 68.5201 78.3382Z" fill="url(#paint0_linear_1_499)"/>
<path opacity="0.1" d="M34.996 48.6891L31.5797 47.7164C31.2459 46.3509 30.7062 45.0652 29.9965 43.8971L31.7246 40.79C31.8716 40.5253 31.8254 40.1954 31.6112 39.9811L29.2763 37.645C29.0622 37.4307 28.7325 37.3845 28.4679 37.5316L25.3624 39.2605C24.1929 38.5505 22.9079 38.0126 21.5452 37.6765L20.573 34.2584C20.4911 33.9664 20.2244 33.7668 19.9221 33.7668H16.6171C16.3148 33.7668 16.0481 33.9685 15.9662 34.2584L14.994 37.6765C13.6292 38.0105 12.3442 38.5505 11.1767 39.2605L8.07126 37.5316C7.8067 37.3845 7.47704 37.4307 7.26287 37.645L4.92589 39.979C4.71171 40.1933 4.66552 40.5231 4.8125 40.7879L6.54057 43.895C5.83086 45.0652 5.29334 46.3509 4.95738 47.7143L1.54114 48.687C1.24928 48.7711 1.0498 49.0358 1.0498 49.3383V52.6429C1.0498 52.9454 1.24928 53.2122 1.54114 53.2942L4.95738 54.2668C5.29124 55.6324 5.83086 56.9181 6.54057 58.0862L4.8125 61.1933C4.66552 61.458 4.71171 61.7879 4.92589 62.0021L7.26077 64.3383C7.47494 64.5526 7.8046 64.5988 8.06916 64.4517L11.1746 62.7227C12.3442 63.4328 13.6292 63.9706 14.9919 64.3068L15.9641 67.7248C16.046 68.0168 16.3127 68.2164 16.615 68.2164H19.9179C20.2202 68.2164 20.4869 68.0168 20.5688 67.7248L21.541 64.3068C22.9058 63.9727 24.1908 63.4328 25.3582 62.7227L28.4637 64.4517C28.7283 64.5988 29.058 64.5526 29.2721 64.3383L31.607 62.0021C31.8212 61.7879 31.8674 61.458 31.7204 61.1933L29.9923 58.0862C30.702 56.916 31.2396 55.6303 31.5755 54.2668L34.9918 53.2942C35.2836 53.2122 35.4831 52.9454 35.4831 52.6429V49.3383C35.4873 49.0379 35.2857 48.7732 34.996 48.6891ZM18.2675 56.4118C15.2775 56.4118 12.8523 53.9853 12.8523 50.9937C12.8523 48.0021 15.2775 45.5736 18.2675 45.5736C21.2575 45.5736 23.6827 48 23.6827 50.9916C23.6848 53.9853 21.2596 56.4118 18.2675 56.4118Z" fill="url(#paint1_linear_1_499)"/>
<path opacity="0.1" d="M57.971 16.0714L54.2902 15.0231C53.929 13.5525 53.3495 12.1681 52.5873 10.9097L54.4498 7.56303C54.6072 7.27941 54.559 6.92227 54.328 6.69328L51.8125 4.17647C51.5816 3.94538 51.2267 3.89706 50.9432 4.05462L47.5984 5.91807C46.3386 5.15336 44.9548 4.57353 43.4871 4.21218L42.4394 0.529412C42.3491 0.216387 42.0635 0 41.7381 0H38.1811C37.8557 0 37.568 0.216387 37.4798 0.529412L36.4321 4.21218C34.9623 4.57353 33.5786 5.15336 32.3208 5.91597L28.976 4.05462C28.6925 3.89706 28.3356 3.94538 28.1067 4.17647L25.5912 6.69328C25.3603 6.92437 25.312 7.27941 25.4694 7.56303L27.3319 10.9097C26.5676 12.1702 25.9881 13.5525 25.6269 15.0231L21.9461 16.0714C21.6333 16.1618 21.417 16.4475 21.417 16.7731V20.3319C21.417 20.6576 21.6333 20.9454 21.9461 21.0336L25.6269 22.0819C25.9881 23.5525 26.5676 24.937 27.3319 26.1954L25.4694 29.542C25.312 29.8256 25.3603 30.1828 25.5912 30.4118L28.1067 32.9286C28.3377 33.1597 28.6925 33.208 28.976 33.0504L32.3208 31.187C33.5807 31.9517 34.9644 32.5315 36.4321 32.8929L37.4798 36.5756C37.5701 36.8887 37.8557 37.105 38.1811 37.105H41.7381C42.0635 37.105 42.3512 36.8887 42.4394 36.5756L43.4871 32.8929C44.9569 32.5315 46.3407 31.9517 47.5984 31.187L50.9432 33.0504C51.2267 33.208 51.5837 33.1597 51.8125 32.9286L54.328 30.4118C54.559 30.1807 54.6072 29.8256 54.4498 29.542L52.5873 26.1954C53.3516 24.9349 53.9311 23.5504 54.2902 22.0819L57.971 21.0336C58.2839 20.9433 58.5001 20.6576 58.5001 20.3319V16.7731C58.5001 16.4475 58.286 16.1597 57.971 16.0714ZM39.9596 25.7689C35.9764 25.7689 32.7471 22.5378 32.7471 18.5525C32.7471 14.5672 35.9764 11.3361 39.9596 11.3361C43.9428 11.3361 47.1721 14.5672 47.1721 18.5525C47.1721 22.5378 43.9428 25.7689 39.9596 25.7689Z" fill="url(#paint2_linear_1_499)"/>
<path d="M99.4951 62.7795L93.1666 60.977C92.5472 58.4497 91.5498 56.0694 90.2354 53.9035L93.4374 48.1493C93.7083 47.6598 93.6243 47.0484 93.2275 46.6514L88.9021 42.3236C88.5052 41.9287 87.8942 41.8425 87.405 42.1136L81.6538 45.3173C79.489 44.0043 77.11 43.0064 74.5841 42.3846L72.7825 36.0526C72.6292 35.5127 72.1358 35.1409 71.5752 35.1409H65.4587C64.8981 35.1409 64.4046 35.5127 64.2513 36.0526L62.4498 42.3846C59.9238 43.0043 57.5448 44.0022 55.38 45.3173L49.6289 42.1136C49.1397 41.8425 48.5286 41.9266 48.1318 42.3236L43.8064 46.6514C43.4116 47.0463 43.3255 47.6598 43.5964 48.1493L46.7985 53.9035C45.4862 56.0694 44.4888 58.4497 43.8673 60.977L37.5387 62.7795C36.9991 62.9329 36.6274 63.4266 36.6274 63.9875V70.1073C36.6274 70.6682 36.9991 71.1619 37.5387 71.3152L43.8673 73.1178C44.4867 75.6451 45.4841 78.0253 46.7985 80.1913L43.5964 85.9455C43.3255 86.435 43.4095 87.0463 43.8064 87.4434L48.1318 91.7711C48.5265 92.1682 49.1397 92.2522 49.6289 91.9812L55.38 88.7774C57.5448 90.0904 59.9238 91.0883 62.4498 91.7102L64.2513 98.0421C64.4046 98.582 64.8981 98.9539 65.4587 98.9539H71.5752C72.1358 98.9539 72.6292 98.582 72.7825 98.0421L74.5841 91.7102C77.11 91.0904 79.489 90.0925 81.6538 88.7774L87.405 91.9812C87.8942 92.2522 88.5052 92.1682 88.9021 91.7711L93.2275 87.4434C93.6243 87.0463 93.7083 86.435 93.4374 85.9455L90.2354 80.1913C91.5477 78.0253 92.5451 75.6451 93.1666 73.1178L99.4951 71.3152C100.035 71.1619 100.406 70.6682 100.406 70.1073V63.9875C100.406 63.4245 100.035 62.9329 99.4951 62.7795ZM68.5201 82.7501C59.8524 82.7501 52.8226 75.7186 52.8226 67.0442C52.8226 58.3699 59.8503 51.3383 68.5201 51.3383C77.1898 51.3383 84.2176 58.3699 84.2176 67.0442C84.2176 75.7186 77.1877 82.7501 68.5201 82.7501Z" fill="white"/>
<path d="M34.996 53.1007L31.5797 52.128C31.2459 50.7625 30.7062 49.4768 29.9965 48.3087L31.7246 45.2016C31.8716 44.9369 31.8254 44.607 31.6112 44.3928L29.2763 42.0566C29.0622 41.8423 28.7325 41.7961 28.4679 41.9432L25.3624 43.6722C24.1929 42.9621 22.9079 42.4243 21.5452 42.0881L20.573 38.6701C20.4911 38.378 20.2244 38.1785 19.9221 38.1785H16.6171C16.3148 38.1785 16.0481 38.3801 15.9662 38.6701L14.994 42.0881C13.6292 42.4222 12.3442 42.9621 11.1767 43.6722L8.07126 41.9432C7.8067 41.7961 7.47704 41.8423 7.26287 42.0566L4.92589 44.3907C4.71171 44.6049 4.66552 44.9348 4.8125 45.1995L6.54057 48.3066C5.83086 49.4768 5.29334 50.7625 4.95738 52.1259L1.54114 53.0986C1.24928 53.1806 1.0498 53.4474 1.0498 53.7499V57.0545C1.0498 57.357 1.24928 57.6238 1.54114 57.7058L4.95738 58.6785C5.29124 60.044 5.83086 61.3297 6.54057 62.4978L4.8125 65.6049C4.66552 65.8696 4.71171 66.1995 4.92589 66.4138L7.26077 68.7499C7.47494 68.9642 7.8046 69.0104 8.06916 68.8633L11.1746 67.1343C12.3442 67.8444 13.6292 68.3822 14.9919 68.7184L15.9641 72.1364C16.046 72.4285 16.3127 72.628 16.615 72.628H19.9179C20.2202 72.628 20.4869 72.4285 20.5688 72.1364L21.541 68.7184C22.9058 68.3843 24.1908 67.8444 25.3582 67.1343L28.4637 68.8633C28.7283 69.0104 29.058 68.9642 29.2721 68.7499L31.607 66.4138C31.8212 66.1995 31.8674 65.8696 31.7204 65.6049L29.9923 62.4978C30.702 61.3276 31.2396 60.0419 31.5755 58.6785L34.9918 57.7058C35.2836 57.6238 35.4831 57.357 35.4831 57.0545V53.7499C35.4873 53.4495 35.2857 53.1827 34.996 53.1007ZM18.2675 60.8234C15.2775 60.8234 12.8523 58.397 12.8523 55.4054C12.8523 52.4138 15.2775 49.9852 18.2675 49.9852C21.2575 49.9852 23.6827 52.4117 23.6827 55.4033C23.6848 58.397 21.2596 60.8234 18.2675 60.8234Z" fill="#6583FE" fill-opacity="0.1"/>
<path d="M57.971 20.4831L54.2902 19.4348C53.929 17.9642 53.3495 16.5798 52.5873 15.3214L54.4498 11.9747C54.6072 11.6911 54.559 11.334 54.328 11.105L51.8125 8.58819C51.5816 8.3571 51.2267 8.30878 50.9432 8.46634L47.5984 10.3298C46.3386 9.56508 44.9548 8.98525 43.4871 8.626L42.4394 4.94323C42.3491 4.6302 42.0635 4.41382 41.7381 4.41382H38.1811C37.8557 4.41382 37.568 4.6302 37.4798 4.94323L36.4321 8.626C34.9623 8.98735 33.5786 9.56718 32.3208 10.3298L28.976 8.46634C28.6925 8.30878 28.3356 8.3571 28.1067 8.58819L25.5912 11.105C25.3603 11.3361 25.312 11.6911 25.4694 11.9747L27.3319 15.3214C26.5676 16.5819 25.9881 17.9642 25.6269 19.4348L21.9461 20.4831C21.6333 20.5735 21.417 20.8592 21.417 21.1848V24.7436C21.417 25.0693 21.6333 25.3571 21.9461 25.4453L25.6269 26.4936C25.9881 27.9642 26.5676 29.3487 27.3319 30.6071L25.4694 33.9537C25.312 34.2373 25.3603 34.5945 25.5912 34.8235L28.1067 37.3403C28.3377 37.5714 28.6925 37.6197 28.976 37.4621L32.3208 35.5987C33.5807 36.3634 34.9644 36.9432 36.4321 37.3046L37.4798 40.9873C37.5701 41.3004 37.8557 41.5168 38.1811 41.5168H41.7381C42.0635 41.5168 42.3512 41.3004 42.4394 40.9873L43.4871 37.3046C44.9569 36.9432 46.3407 36.3634 47.5984 35.5987L50.9432 37.4621C51.2267 37.6197 51.5837 37.5714 51.8125 37.3403L54.328 34.8235C54.559 34.5924 54.6072 34.2373 54.4498 33.9537L52.5873 30.6071C53.3516 29.3466 53.9311 27.9621 54.2902 26.4936L57.971 25.4453C58.2839 25.355 58.5001 25.0693 58.5001 24.7436V21.1848C58.5001 20.8592 58.286 20.5714 57.971 20.4831ZM39.9596 30.1806C35.9764 30.1806 32.7471 26.9495 32.7471 22.9642C32.7471 18.9789 35.9764 15.7479 39.9596 15.7479C43.9428 15.7479 47.1721 18.9789 47.1721 22.9642C47.1721 26.9495 43.9428 30.1806 39.9596 30.1806Z" fill="white"/>
<path d="M71.5774 100H65.4609C64.4362 100 63.5249 99.3109 63.2436 98.3256L61.6058 92.5735C59.4221 91.9832 57.3266 91.1156 55.3654 89.9853L50.1413 92.895C49.2448 93.3929 48.1151 93.2332 47.3928 92.5105L43.0674 88.1828C42.3451 87.458 42.1855 86.3277 42.6831 85.4328L45.5933 80.2038C44.4658 78.2395 43.5965 76.145 43.0065 73.9601L37.2575 72.3214C36.2727 72.0399 35.584 71.1282 35.584 70.1029V63.9832C35.584 62.958 36.2727 62.0462 37.2575 61.7647L43.0065 60.1261C43.5965 57.9412 44.4637 55.8445 45.5933 53.8824L42.6852 48.6555C42.1876 47.7584 42.3472 46.6281 43.0695 45.9055L47.3949 41.5777C48.1193 40.8529 49.249 40.6954 50.1434 41.1933L55.3696 44.105C57.3329 42.9769 59.4263 42.1071 61.61 41.5168L63.2478 35.7647C63.5291 34.7794 64.4404 34.0903 65.4651 34.0903H71.5816C72.6062 34.0903 73.5175 34.7794 73.7989 35.7647L75.4366 41.5168C77.6225 42.1071 79.7159 42.9769 81.677 44.105L86.9011 41.1954C87.7977 40.6975 88.9273 40.855 89.6496 41.5798L93.9751 45.9076C94.6995 46.6324 94.857 47.7626 94.3593 48.6576L91.4491 53.8866C92.5767 55.8487 93.4459 57.9454 94.036 60.1303L99.785 61.7689C100.77 62.0504 101.458 62.9622 101.458 63.9874V70.1071C101.458 71.1324 100.77 72.0441 99.785 72.3256L94.036 73.9643C93.4459 76.1492 92.5767 78.2458 91.4491 80.208L94.3572 85.4349C94.8549 86.3319 94.6953 87.4622 93.973 88.1849L89.6475 92.5126C88.9231 93.2374 87.7935 93.395 86.899 92.8971L81.6728 89.9853C79.7096 91.1134 77.6162 91.9832 75.4324 92.5735L73.7947 98.3256C73.5133 99.3109 72.602 100 71.5774 100ZM55.3822 87.7248C55.5712 87.7248 55.7602 87.7752 55.9261 87.8781C58.0321 89.1555 60.3124 90.1008 62.7019 90.6891C63.0672 90.7794 63.357 91.0588 63.462 91.4223L65.2635 97.7542C65.2887 97.8424 65.3685 97.9034 65.4609 97.9034H71.5774C71.6698 97.9034 71.7495 97.8424 71.7747 97.7542L73.5763 91.4223C73.6792 91.0588 73.9689 90.7794 74.3364 90.6891C76.728 90.1029 79.0083 89.1576 81.1122 87.8781C81.4355 87.6828 81.8387 87.6744 82.1662 87.8592L87.9174 91.063C87.9951 91.1071 88.0959 91.0924 88.1609 91.0294L92.4864 86.7017C92.5515 86.6387 92.5641 86.5378 92.52 86.458L89.3179 80.7038C89.1352 80.374 89.1415 79.9706 89.3368 79.6492C90.6134 77.542 91.5583 75.2605 92.1462 72.8697C92.2365 72.5042 92.5158 72.2143 92.879 72.1092L99.2076 70.3067C99.2958 70.2815 99.3566 70.2017 99.3566 70.1092V63.9895C99.3566 63.8971 99.2958 63.8172 99.2076 63.792L92.879 61.9895C92.5158 61.8866 92.2365 61.5966 92.1462 61.229C91.5604 58.8361 90.6155 56.5546 89.3368 54.4496C89.1415 54.126 89.1331 53.7248 89.3179 53.395L92.52 47.6408C92.5641 47.5609 92.5494 47.4622 92.4864 47.3971L88.1609 43.0693C88.0959 43.0042 87.9972 42.9916 87.9174 43.0357L82.1662 46.2395C81.8366 46.4223 81.4334 46.416 81.1122 46.2206C79.0062 44.9433 76.7259 43.9979 74.3364 43.4097C73.971 43.3193 73.6813 43.0399 73.5763 42.6765L71.7747 36.3445C71.7495 36.2563 71.6698 36.1954 71.5774 36.1954H65.4609C65.3685 36.1954 65.2887 36.2542 65.2635 36.3445L63.462 42.6765C63.3591 43.0399 63.0693 43.3193 62.7019 43.4097C60.3103 43.9958 58.03 44.9412 55.9261 46.2206C55.6027 46.416 55.1996 46.4244 54.872 46.2395L49.1209 43.0357C49.0411 42.9916 48.9424 43.0063 48.8773 43.0693L44.5519 47.3971C44.4868 47.4601 44.4742 47.5609 44.5183 47.6408L47.7204 53.3929C47.903 53.7227 47.8967 54.1261 47.7015 54.4475C46.4248 56.5546 45.48 58.8361 44.892 61.2269C44.8018 61.5924 44.5225 61.8824 44.1592 61.9874L37.8307 63.7899C37.7425 63.8151 37.6816 63.895 37.6816 63.9874V70.1071C37.6816 70.1996 37.7404 70.2794 37.8307 70.3046L44.1592 72.1071C44.5225 72.2101 44.8018 72.5 44.892 72.8676C45.4779 75.2605 46.4227 77.542 47.7015 79.6471C47.8967 79.9706 47.9051 80.3719 47.7204 80.7017L44.5183 86.4559C44.4742 86.5336 44.4889 86.6345 44.5519 86.6996L48.8773 91.0273C48.9403 91.0924 49.0411 91.105 49.1209 91.0609L54.8699 87.8571C55.0295 87.7689 55.2059 87.7248 55.3822 87.7248ZM68.5202 83.8004C59.2856 83.8004 51.7728 76.2836 51.7728 67.0441C51.7728 63.7395 52.7366 60.5399 54.5591 57.792C54.8804 57.3088 55.5313 57.1765 56.0142 57.4979C56.4972 57.8193 56.6295 58.4706 56.3082 58.9538C54.7145 61.355 53.8725 64.1534 53.8725 67.0441C53.8725 75.124 60.4426 81.6996 68.5202 81.6996C76.5978 81.6996 83.1678 75.1261 83.1678 67.0441C83.1678 58.9622 76.5978 52.3887 68.5202 52.3887C65.4714 52.3887 62.5465 53.3214 60.0625 55.084C59.5901 55.4202 58.935 55.3088 58.599 54.834C58.263 54.3613 58.3743 53.7059 58.8489 53.3697C61.6919 51.3529 65.0346 50.2878 68.5223 50.2878C77.7568 50.2878 85.2696 57.8046 85.2696 67.0441C85.2696 76.2836 77.7526 83.8004 68.5202 83.8004Z" fill="url(#paint3_linear_1_499)"/>
<path d="M19.92 73.6825H16.6172C15.8487 73.6825 15.1663 73.1657 14.9563 72.4283L14.1458 69.5817C13.1085 69.2813 12.1112 68.8674 11.1642 68.3464L8.57945 69.7855C7.90754 70.1573 7.06135 70.0397 6.51753 69.4977L4.18264 67.1615C3.64091 66.6195 3.52123 65.7708 3.89498 65.1006L5.33539 62.5124C4.81465 61.567 4.40101 60.567 4.10075 59.5292L1.25353 58.7183C0.514431 58.5082 0 57.8233 0 57.0565V53.7519C0 52.983 0.516531 52.3002 1.25353 52.0901L4.09865 51.2792C4.39891 50.2414 4.81256 49.2435 5.33329 48.296L3.89498 45.7099C3.52123 45.0376 3.64091 44.191 4.18264 43.6468L6.51753 41.3107C7.05925 40.7687 7.90754 40.6489 8.57735 41.0229L11.1642 42.4641C12.1091 41.9431 13.1085 41.5292 14.1458 41.2288L14.9563 38.3821C15.1663 37.6426 15.8508 37.1279 16.6172 37.1279H19.92C20.6885 37.1279 21.3709 37.6447 21.5809 38.3821L22.3914 41.2288C23.4287 41.5292 24.426 41.9431 25.373 42.4641L27.9578 41.025C28.6297 40.6531 29.4759 40.7708 30.0197 41.3128L32.3546 43.6489C32.8963 44.191 33.016 45.0397 32.6443 45.7099L31.2039 48.2981C31.7247 49.2435 32.1383 50.2435 32.4386 51.2813L35.2837 52.0922C36.0228 52.3023 36.5372 52.9872 36.5372 53.754V57.0586C36.5372 57.8275 36.0207 58.5103 35.2837 58.7204L32.4386 59.5313C32.1383 60.5691 31.7247 61.567 31.2039 62.5145L32.6422 65.1006C33.016 65.7729 32.8963 66.6195 32.3546 67.1636L30.0197 69.4998C29.478 70.0418 28.6297 70.1615 27.9599 69.7897L25.373 68.3485C24.426 68.8695 23.4287 69.2834 22.3914 69.5838L21.5809 72.4304C21.3709 73.1657 20.6885 73.6825 19.92 73.6825ZM16.8985 71.5817H19.6387L20.5352 68.4325C20.6381 68.0691 20.9279 67.7897 21.2953 67.6994C22.5384 67.3947 23.7247 66.9031 24.8187 66.2393C25.142 66.0439 25.5452 66.0355 25.8727 66.2204L28.7325 67.8128L30.6706 65.8737L29.079 63.0124C28.8963 62.6825 28.9026 62.2792 29.0979 61.9578C29.7614 60.8632 30.2527 59.6762 30.5593 58.4326C30.6496 58.067 30.9289 57.7771 31.2921 57.672L34.4396 56.775V54.0334L31.2921 53.1363C30.9289 53.0334 30.6496 52.7435 30.5593 52.3758C30.2548 51.1321 29.7635 49.9452 29.0979 48.8506C28.9026 48.5271 28.8942 48.1237 29.079 47.796L30.6706 44.9347L28.7325 42.9956L25.8727 44.588C25.5431 44.7729 25.1399 44.7645 24.8187 44.5691C23.7247 43.9052 22.5384 43.4136 21.2953 43.1069C20.9279 43.0166 20.6402 42.7372 20.5352 42.3737L19.6387 39.2246H16.8985L16.002 42.3737C15.8991 42.7372 15.6093 43.0166 15.2419 43.1069C13.9988 43.4115 12.8125 43.9031 11.7185 44.5691C11.3952 44.7645 10.992 44.7729 10.6624 44.588L7.80255 42.9956L5.86451 44.9347L7.4561 47.796C7.63878 48.1258 7.63248 48.5292 7.4372 48.8506C6.77369 49.9452 6.28236 51.1321 5.9758 52.3758C5.88551 52.7414 5.60625 53.0313 5.243 53.1363L2.09972 54.0334V56.775L5.2472 57.672C5.61045 57.775 5.88971 58.0649 5.98 58.4326C6.28446 59.6762 6.77579 60.8632 7.4414 61.9578C7.63668 62.2813 7.64508 62.6825 7.4603 63.0124L5.86871 65.8737L7.80675 67.8128L10.6666 66.2204C10.9962 66.0376 11.3994 66.0439 11.7227 66.2393C12.8188 66.9031 14.003 67.3947 15.2461 67.6994C15.6135 67.7897 15.9012 68.0691 16.0062 68.4325L16.8985 71.5817Z" fill="url(#paint4_linear_1_499)"/>
<path d="M18.2678 61.8739C14.7024 61.8739 11.8027 58.9726 11.8027 55.4054C11.8027 51.8382 14.7024 48.9348 18.2678 48.9348C21.8331 48.9348 24.7328 51.8361 24.7328 55.4033C24.7349 58.9726 21.8331 61.8739 18.2678 61.8739ZM18.2678 51.0357C15.8615 51.0357 13.9025 52.9957 13.9025 55.4033C13.9025 57.8109 15.8615 59.771 18.2678 59.771C20.674 59.771 22.6331 57.8109 22.6331 55.4033C22.6331 52.9957 20.6761 51.0357 18.2678 51.0357Z" fill="url(#paint5_linear_1_499)"/>
<path d="M41.736 42.5671H38.1791C37.3875 42.5671 36.6841 42.0356 36.4678 41.2751L35.5838 38.1679C34.4437 37.8402 33.3455 37.3843 32.3083 36.8108L29.4842 38.3843C28.7913 38.7688 27.9199 38.6469 27.3613 38.0881L24.8459 35.5713C24.2874 35.0125 24.1656 34.1385 24.5477 33.4495L26.1204 30.6238C25.5451 29.586 25.0916 28.4873 24.764 27.3465L21.6585 26.4621C20.8984 26.2457 20.3672 25.5419 20.3672 24.7499V21.1911C20.3672 20.399 20.8984 19.6953 21.6585 19.4789L24.764 18.5944C25.0916 17.4537 25.5472 16.3549 26.1204 15.3171L24.5477 12.4936C24.1635 11.8003 24.2853 10.9285 24.8438 10.3696L27.3593 7.85282C27.9178 7.294 28.7913 7.17215 29.48 7.5545L32.3041 9.12803C33.3413 8.5524 34.4395 8.09862 35.5796 7.76879L36.4636 4.66165C36.6799 3.90114 37.3833 3.36963 38.1749 3.36963H41.7318C42.5234 3.36963 43.2268 3.90114 43.4431 4.66165L44.3271 7.76879C45.4672 8.09652 46.5654 8.5524 47.6026 9.12803L50.4247 7.5545C51.1176 7.17005 51.9889 7.2919 52.5475 7.85072L55.0629 10.3675C55.6215 10.9264 55.7432 11.8003 55.3611 12.4894L53.7884 15.315C54.3637 16.3528 54.8173 17.4516 55.1448 18.5923L58.2524 19.4768C59.0125 19.6932 59.5437 20.3969 59.5437 21.189V24.7478C59.5437 25.5398 59.0125 26.2436 58.2524 26.46L55.1448 27.3444C54.8173 28.4852 54.3616 29.5839 53.7884 30.6217L55.359 33.4453C55.7432 34.1385 55.6215 35.0104 55.0629 35.5692L52.5475 38.086C51.9889 38.6448 51.1155 38.7667 50.4268 38.3843L47.6026 36.8108C46.5654 37.3864 45.4672 37.8402 44.3271 38.1679L43.4431 41.2751C43.231 42.0356 42.5276 42.5671 41.736 42.5671ZM38.4227 40.4663H41.4946L42.4772 37.0167C42.5801 36.6532 42.8699 36.3738 43.2373 36.2835C44.5853 35.9537 45.8683 35.42 47.0546 34.7016C47.378 34.5062 47.7811 34.4978 48.1087 34.6827L51.2414 36.4285L53.4147 34.2541L51.6698 31.1196C51.4871 30.7898 51.4934 30.3864 51.6887 30.065C52.4068 28.878 52.9401 27.5944 53.2698 26.2457C53.3601 25.8801 53.6393 25.5902 54.0026 25.4852L57.4503 24.502V21.4264L54.0026 20.4432C53.6393 20.3402 53.3601 20.0503 53.2698 19.6827C52.9401 18.3339 52.4068 17.0503 51.6887 15.8633C51.4934 15.5398 51.485 15.1364 51.6698 14.8066L53.4147 11.6721L51.2414 9.49778L48.1087 11.2436C47.779 11.4264 47.3759 11.42 47.0546 11.2247C45.8683 10.5041 44.5853 9.97257 43.2373 9.64274C42.872 9.5524 42.5822 9.27299 42.4772 8.90954L41.4946 5.46207H38.4227L37.44 8.91165C37.3371 9.27509 37.0474 9.5545 36.6799 9.64484C35.3319 9.97467 34.049 10.5083 32.8626 11.2268C32.5393 11.4221 32.1361 11.4306 31.8086 11.2457L28.6758 9.49988L26.5026 11.6743L28.2474 14.8087C28.4301 15.1385 28.4238 15.5419 28.2285 15.8654C27.5083 17.0524 26.9771 18.336 26.6474 19.6848C26.5572 20.0524 26.2779 20.3402 25.9146 20.4453L22.4669 21.4264V24.4999L25.9146 25.4831C26.2779 25.586 26.5572 25.8759 26.6474 26.2436C26.9771 27.5923 27.5104 28.8759 28.2285 30.0629C28.4238 30.3864 28.4322 30.7898 28.2474 31.1175L26.5026 34.252L28.6758 36.4264L31.8086 34.6806C32.1382 34.4978 32.5414 34.5041 32.8626 34.6995C34.049 35.4201 35.3319 35.9516 36.6799 36.2814C37.0453 36.3717 37.335 36.6511 37.44 37.0146L38.4227 40.4663ZM39.9597 31.231C38.8531 31.231 37.776 31.0146 36.7618 30.5881C36.2264 30.3633 35.9765 29.7478 36.2012 29.2121C36.4258 28.6764 37.0411 28.4264 37.5765 28.6511C38.3324 28.9684 39.1345 29.1301 39.9597 29.1301C43.357 29.1301 46.1223 26.3633 46.1223 22.9642C46.1223 19.565 43.357 16.7982 39.9597 16.7982C36.5623 16.7982 33.797 19.565 33.797 22.9642C33.797 23.6911 33.923 24.4032 34.1686 25.0797C34.3681 25.6238 34.0867 26.2268 33.5429 26.4264C32.9991 26.6259 32.3965 26.3444 32.197 25.8003C31.8652 24.8927 31.6973 23.939 31.6973 22.9642C31.6973 18.4053 35.4033 14.6974 39.9597 14.6974C44.5161 14.6974 48.2221 18.4053 48.2221 22.9642C48.2221 27.5209 44.514 31.231 39.9597 31.231Z" fill="url(#paint6_linear_1_499)"/>
<path d="M63.6171 70.6176C63.3483 70.6176 63.0816 70.5146 62.8759 70.3108L60.352 67.7856C59.9426 67.376 59.9426 66.7121 60.352 66.3024L62.8759 63.7772C63.2853 63.3676 63.9488 63.3676 64.3583 63.7772C64.7677 64.1869 64.7677 64.8508 64.3583 65.2604L62.5777 67.044L64.3583 68.8276C64.7677 69.2373 64.7677 69.9012 64.3583 70.3108C64.1546 70.5167 63.8858 70.6176 63.6171 70.6176Z" fill="url(#paint7_linear_1_499)"/>
<path d="M73.4208 70.6176C73.1521 70.6176 72.8854 70.5146 72.6796 70.3108C72.2702 69.9012 72.2702 69.2373 72.6796 68.8276L74.4602 67.044L72.6796 65.2604C72.2702 64.8508 72.2702 64.1869 72.6796 63.7772C73.0891 63.3676 73.7526 63.3676 74.162 63.7772L76.6859 66.3024C77.0953 66.7121 77.0953 67.376 76.6859 67.7856L74.162 70.3108C73.9563 70.5167 73.6896 70.6176 73.4208 70.6176Z" fill="url(#paint8_linear_1_499)"/>
<path d="M67.0943 70.6177C66.92 70.6177 66.7436 70.5735 66.5799 70.4811C66.0759 70.1954 65.8975 69.5567 66.183 69.0525L69.0323 64.0042C69.3179 63.5 69.9562 63.3214 70.4602 63.6072C70.9641 63.8929 71.1426 64.5315 70.857 65.0357L68.0077 70.0841C67.8145 70.4265 67.4596 70.6177 67.0943 70.6177Z" fill="url(#paint9_linear_1_499)"/>
<path d="M29.0959 82.7858C28.8272 82.7858 28.5584 82.6828 28.3526 82.479L26.0429 80.1681C25.6335 79.7585 25.6335 79.0925 26.0429 78.6828L28.3526 76.3719C28.55 76.1744 28.8167 76.0652 29.0959 76.0652C29.3752 76.0652 29.6418 76.1765 29.8392 76.3719L32.1489 78.6828C32.3463 78.8803 32.4555 79.1471 32.4555 79.4265C32.4555 79.7059 32.3442 79.9727 32.1489 80.1702L29.8392 82.4811C29.6313 82.6828 29.3626 82.7858 29.0959 82.7858ZM28.2707 79.4244L29.0959 80.2501L29.9211 79.4244L29.0959 78.5988L28.2707 79.4244Z" fill="#6583FE"/>
<path d="M70.9914 27.376C70.4119 27.376 69.9415 26.9054 69.9415 26.3256C69.9415 25.6302 69.3767 25.0651 68.6817 25.0651C68.1022 25.0651 67.6318 24.5945 67.6318 24.0147C67.6318 23.4348 68.1022 22.9642 68.6817 22.9642C69.3767 22.9642 69.9415 22.3991 69.9415 21.7037C69.9415 21.1239 70.4119 20.6533 70.9914 20.6533C71.5709 20.6533 72.0412 21.1239 72.0412 21.7037C72.0412 22.3991 72.6061 22.9642 73.3011 22.9642C73.8806 22.9642 74.3509 23.4348 74.3509 24.0147C74.3509 24.5945 73.8806 25.0651 73.3011 25.0651C72.6061 25.0651 72.0412 25.6302 72.0412 26.3256C72.0412 26.9054 71.5709 27.376 70.9914 27.376Z" fill="#6583FE"/>
<path d="M35.4875 93.2039C34.908 93.2039 34.4376 92.7333 34.4376 92.1535C34.4376 91.4581 33.8728 90.893 33.1778 90.893C32.5983 90.893 32.1279 90.4224 32.1279 89.8425C32.1279 89.2627 32.5983 88.7921 33.1778 88.7921C33.8728 88.7921 34.4376 88.227 34.4376 87.5316C34.4376 86.9518 34.908 86.4812 35.4875 86.4812C36.067 86.4812 36.5373 86.9518 36.5373 87.5316C36.5373 88.227 37.1022 88.7921 37.7972 88.7921C38.3767 88.7921 38.847 89.2627 38.847 89.8425C38.847 90.4224 38.3767 90.893 37.7972 90.893C37.1022 90.893 36.5373 91.4581 36.5373 92.1535C36.5373 92.7333 36.067 93.2039 35.4875 93.2039Z" fill="#6583FE"/>
<path d="M12.8522 32.5547C12.2727 32.5547 11.8024 32.0841 11.8024 31.5043C11.8024 30.8089 11.2375 30.2438 10.5425 30.2438C9.96301 30.2438 9.49268 29.7732 9.49268 29.1934C9.49268 28.6135 9.96301 28.143 10.5425 28.143C11.2375 28.143 11.8024 27.5778 11.8024 26.8825C11.8024 26.3026 12.2727 25.832 12.8522 25.832C13.4317 25.832 13.9021 26.3026 13.9021 26.8825C13.9021 27.5778 14.4669 28.143 15.1619 28.143C15.7414 28.143 16.2118 28.6135 16.2118 29.1934C16.2118 29.7732 15.7414 30.2438 15.1619 30.2438C14.4669 30.2438 13.9021 30.8089 13.9021 31.5043C13.9021 32.0841 13.4317 32.5547 12.8522 32.5547Z" fill="#6583FE"/>
</g>
<defs>
<linearGradient id="paint0_linear_1_499" x1="97.741" y1="30.7268" x2="90.7208" y2="100.02" gradientUnits="userSpaceOnUse">
<stop stop-color="#61DCDF"/>
<stop offset="1" stop-color="#886CFF"/>
</linearGradient>
<linearGradient id="paint1_linear_1_499" x1="34.0442" y1="33.7668" x2="30.2545" y2="71.175" gradientUnits="userSpaceOnUse">
<stop stop-color="#61DCDF"/>
<stop offset="1" stop-color="#886CFF"/>
</linearGradient>
<linearGradient id="paint2_linear_1_499" x1="56.9504" y1="2.16914e-07" x2="52.8681" y2="40.2916" gradientUnits="userSpaceOnUse">
<stop stop-color="#61DCDF"/>
<stop offset="1" stop-color="#886CFF"/>
</linearGradient>
<linearGradient id="paint3_linear_1_499" x1="98.7055" y1="34.0903" x2="91.4546" y2="105.66" gradientUnits="userSpaceOnUse">
<stop stop-color="#61DCDF"/>
<stop offset="1" stop-color="#886CFF"/>
</linearGradient>
<linearGradient id="paint4_linear_1_499" x1="35.0103" y1="37.1279" x2="30.989" y2="76.8219" gradientUnits="userSpaceOnUse">
<stop stop-color="#61DCDF"/>
<stop offset="1" stop-color="#886CFF"/>
</linearGradient>
<linearGradient id="paint5_linear_1_499" x1="24.1924" y1="48.9348" x2="22.7687" y2="62.9851" gradientUnits="userSpaceOnUse">
<stop stop-color="#61DCDF"/>
<stop offset="1" stop-color="#886CFF"/>
</linearGradient>
<linearGradient id="paint6_linear_1_499" x1="57.9065" y1="3.36963" x2="53.5943" y2="45.9334" gradientUnits="userSpaceOnUse">
<stop stop-color="#61DCDF"/>
<stop offset="1" stop-color="#886CFF"/>
</linearGradient>
<linearGradient id="paint7_linear_1_499" x1="64.4723" y1="63.47" x2="63.2734" y2="71.1233" gradientUnits="userSpaceOnUse">
<stop stop-color="#61DCDF"/>
<stop offset="1" stop-color="#886CFF"/>
</linearGradient>
<linearGradient id="paint8_linear_1_499" x1="76.7999" y1="63.47" x2="75.6011" y2="71.1233" gradientUnits="userSpaceOnUse">
<stop stop-color="#61DCDF"/>
<stop offset="1" stop-color="#886CFF"/>
</linearGradient>
<linearGradient id="paint9_linear_1_499" x1="70.7864" y1="63.4709" x2="69.6634" y2="71.1468" gradientUnits="userSpaceOnUse">
<stop stop-color="#61DCDF"/>
<stop offset="1" stop-color="#886CFF"/>
</linearGradient>
<clipPath id="clip0_1_499">
<rect width="101.456" height="100" fill="white"/>
</clipPath>
</defs>
</svg>
