<svg width="100" height="100" viewBox="0 0 100 100" fill="none" xmlns="http://www.w3.org/2000/svg">
<g clip-path="url(#clip0_1_409)">
<path opacity="0.1" d="M96.1929 51.0992H86.9311V30.6689C89.47 30.6689 91.5258 28.611 91.5258 26.0742C91.5258 23.5353 89.4679 21.4795 86.9311 21.4795C85.2307 21.4795 83.7495 22.4052 82.9557 23.7779L78.3291 21.1071L77.7715 20.7857C78.1163 20.4069 78.3291 19.9047 78.3291 19.3513V9.17874C78.3291 8.004 77.3757 7.05059 76.201 7.05059H64.2641C63.0894 7.05059 62.136 8.004 62.136 9.17874V11.7581L53.7063 6.8931C54.0979 6.21635 54.3256 5.43319 54.3256 4.59682C54.3235 2.05793 52.2656 0 49.7288 0C47.1899 0 45.1341 2.05793 45.1341 4.59469C45.1341 5.43319 45.3619 6.21422 45.7534 6.89097L16.5019 23.7779C15.7081 22.4052 14.2269 21.4795 12.5265 21.4795C9.98764 21.4795 7.93184 23.5374 7.93184 26.0742C7.93184 28.6131 9.98976 30.6689 12.5265 30.6689V37.9472H4.69066C3.51591 37.9472 2.5625 38.9006 2.5625 40.0753V50.2479C2.5625 51.4227 3.51591 52.3761 4.69066 52.3761H12.5287V64.4364C9.98976 64.4364 7.93397 66.4943 7.93397 69.031C7.93397 71.5699 9.99189 73.6257 12.5287 73.6257C14.2291 73.6257 15.7102 72.7 16.5041 71.3273L45.7534 88.2143C45.3619 88.891 45.1341 89.6742 45.1341 90.5105C45.1341 93.0494 47.1921 95.1052 49.7288 95.1052C52.2677 95.1052 54.3235 93.0473 54.3235 90.5105C54.3235 89.6742 54.0958 88.891 53.7042 88.2143L68.4715 79.6889L74.0004 76.4966H96.1929C97.3676 76.4966 98.321 75.5432 98.321 74.3685V53.2295C98.321 52.0526 97.3676 51.0992 96.1929 51.0992Z" fill="url(#paint0_linear_1_409)"/>
<path d="M86.9309 29.9053V72.8643L68.4734 83.52L49.7286 94.3417L12.5264 72.8622V29.9053L49.7286 8.42798L62.1337 15.5892L78.3268 24.9382L86.9309 29.9053Z" fill="white"/>
<path d="M49.7393 74.2605L23.0947 66.7587L23.5182 36.2516L49.7266 20.0989L75.8221 36.3176L67.7819 61.8065L49.7393 74.2605Z" fill="#6583FE" fill-opacity="0.14"/>
<path d="M53.9604 10.1859C54.9311 7.84145 53.8173 5.15403 51.4729 4.18341C49.1284 3.21279 46.441 4.32651 45.4704 6.67098C44.4997 9.01545 45.6135 11.7029 47.9579 12.6735C50.3024 13.6441 52.9898 12.5304 53.9604 10.1859Z" fill="white"/>
<path d="M49.7094 98.9191C52.247 98.9191 54.3041 96.862 54.3041 94.3244C54.3041 91.7868 52.247 89.7297 49.7094 89.7297C47.1719 89.7297 45.1147 91.7868 45.1147 94.3244C45.1147 96.862 47.1719 98.9191 49.7094 98.9191Z" fill="white"/>
<path d="M91.4129 30.9875C91.9965 28.5179 90.4677 26.0428 87.9981 25.4592C85.5286 24.8755 83.0535 26.4044 82.4699 28.8739C81.8862 31.3435 83.4151 33.8186 85.8846 34.4022C88.3542 34.9859 90.8292 33.457 91.4129 30.9875Z" fill="white"/>
<path d="M12.5224 34.5119C15.06 34.5119 17.1171 32.4548 17.1171 29.9172C17.1171 27.3796 15.06 25.3225 12.5224 25.3225C9.98485 25.3225 7.92773 27.3796 7.92773 29.9172C7.92773 32.4548 9.98485 34.5119 12.5224 34.5119Z" fill="white"/>
<path d="M15.7643 76.1023C17.5586 74.3081 17.5586 71.399 15.7643 69.6047C13.97 67.8104 11.0608 67.8104 9.26649 69.6047C7.47216 71.399 7.47216 74.3081 9.26649 76.1023C11.0608 77.8966 13.97 77.8966 15.7643 76.1023Z" fill="white"/>
<path d="M96.1928 80.3248H59.1628C57.9881 80.3248 57.0347 79.3713 57.0347 78.1966V57.0576C57.0347 55.8829 57.9881 54.9294 59.1628 54.9294H96.1928C97.3675 54.9294 98.3209 55.8829 98.3209 57.0576V78.1966C98.3209 79.3735 97.3675 80.3248 96.1928 80.3248Z" fill="white"/>
<path d="M73.9283 62.8726H63.9812C63.3917 62.8726 62.915 62.3959 62.915 61.8064C62.915 61.2169 63.3917 60.7402 63.9812 60.7402H73.9283C74.5178 60.7402 74.9945 61.2169 74.9945 61.8064C74.9924 62.3959 74.5156 62.8726 73.9283 62.8726Z" fill="url(#paint1_linear_1_409)"/>
<path d="M86.6969 70.504H63.9788C63.3893 70.504 62.9126 70.0273 62.9126 69.4378C62.9126 68.8483 63.3893 68.3716 63.9788 68.3716H86.6948C87.2843 68.3716 87.761 68.8483 87.761 69.4378C87.761 70.0273 87.2843 70.504 86.6969 70.504Z" fill="url(#paint2_linear_1_409)"/>
<path d="M86.6969 74.8211H63.9788C63.3893 74.8211 62.9126 74.3444 62.9126 73.7549C62.9126 73.1654 63.3893 72.6887 63.9788 72.6887H86.6948C87.2843 72.6887 87.761 73.1654 87.761 73.7549C87.761 74.3444 87.2843 74.8211 86.6969 74.8211Z" fill="url(#paint3_linear_1_409)"/>
<path d="M83.0708 64.5264C82.7984 64.5264 82.526 64.4221 82.3174 64.2157C81.8194 63.7177 81.0086 63.7177 80.5106 64.2157C80.0956 64.6307 79.421 64.6307 79.006 64.2157C78.7975 64.0071 78.6953 63.7347 78.6953 63.4623C78.6953 63.1899 78.7996 62.9175 79.006 62.7089C79.2465 62.4684 79.3806 62.1471 79.3806 61.8065C79.3806 61.466 79.2486 61.1447 79.006 60.9042C78.7975 60.6956 78.6953 60.4232 78.6953 60.1508C78.6953 59.8784 78.7996 59.606 79.006 59.3974C79.421 58.9824 80.0956 58.9824 80.5106 59.3974C81.0086 59.8954 81.8194 59.8954 82.3174 59.3974C82.7324 58.9824 83.407 58.9824 83.822 59.3974C84.0306 59.606 84.1327 59.8784 84.1327 60.1508C84.1327 60.4232 84.0285 60.6956 83.822 60.9042C83.5816 61.1447 83.4475 61.466 83.4475 61.8065C83.4475 62.1471 83.5794 62.4684 83.822 62.7089C84.0306 62.9175 84.1327 63.1899 84.1327 63.4623C84.1327 63.7347 84.0285 64.0071 83.822 64.2157C83.6156 64.4221 83.3432 64.5264 83.0708 64.5264Z" fill="#6583FE"/>
<path d="M91.7236 64.5264C91.4512 64.5264 91.1788 64.4221 90.9703 64.2157C90.4723 63.7177 89.6615 63.7177 89.1635 64.2157C88.7485 64.6307 88.0738 64.6307 87.6589 64.2157C87.4503 64.0071 87.3481 63.7347 87.3481 63.4623C87.3481 63.1899 87.4524 62.9175 87.6589 62.7089C87.8993 62.4684 88.0334 62.1471 88.0334 61.8065C88.0334 61.466 87.9015 61.1447 87.6589 60.9042C87.4503 60.6956 87.3481 60.4232 87.3481 60.1508C87.3481 59.8784 87.4524 59.606 87.6589 59.3974C88.0738 58.9824 88.7485 58.9824 89.1635 59.3974C89.6615 59.8954 90.4723 59.8954 90.9703 59.3974C91.3853 58.9824 92.0599 58.9824 92.4749 59.3974C92.6834 59.606 92.7856 59.8784 92.7856 60.1508C92.7856 60.4232 92.6813 60.6956 92.4749 60.9042C92.2344 61.1447 92.1003 61.466 92.1003 61.8065C92.1003 62.1471 92.2323 62.4684 92.4749 62.7089C92.6834 62.9175 92.7856 63.1899 92.7856 63.4623C92.7856 63.7347 92.6813 64.0071 92.4749 64.2157C92.2684 64.4242 91.996 64.5264 91.7236 64.5264Z" fill="#6583FE"/>
<path d="M16.6254 56.2065H4.69066C3.51591 56.2065 2.5625 55.2531 2.5625 54.0783V43.9057C2.5625 42.731 3.51591 41.7776 4.69066 41.7776H16.6275C17.8022 41.7776 18.7557 42.731 18.7557 43.9057V54.0783C18.7535 55.2531 17.8001 56.2065 16.6254 56.2065Z" fill="white"/>
<path d="M9.21071 52.6194C9.03407 52.6194 8.85318 52.5747 8.68931 52.4811C8.17855 52.1917 7.99765 51.5426 8.28496 51.0318L11.1771 45.9093C11.4666 45.3985 12.1157 45.2176 12.6264 45.5049C13.1372 45.7944 13.3181 46.4435 13.0308 46.9542L10.1386 52.0767C9.9428 52.4236 9.58101 52.6194 9.21071 52.6194Z" fill="url(#paint4_linear_1_409)"/>
<path d="M76.1988 25.3105H64.2619C63.0872 25.3105 62.1338 24.3571 62.1338 23.1823V13.0097C62.1338 11.835 63.0872 10.8816 64.2619 10.8816H76.1988C77.3735 10.8816 78.3269 11.835 78.3269 13.0097V23.1823C78.3269 24.3571 77.3735 25.3105 76.1988 25.3105Z" fill="white"/>
<path d="M68.782 21.7202C68.6053 21.7202 68.4244 21.6755 68.2606 21.5819C67.7498 21.2924 67.5689 20.6433 67.8562 20.1326L70.7483 15.0101C71.0378 14.4993 71.6868 14.3185 72.1976 14.6058C72.7083 14.8952 72.8892 15.5443 72.6019 16.055L69.7098 21.1775C69.514 21.5265 69.1544 21.7202 68.782 21.7202Z" fill="url(#paint5_linear_1_409)"/>
<path d="M49.7287 53.8C51.0486 53.8 52.1186 52.73 52.1186 51.4101C52.1186 50.0902 51.0486 49.0203 49.7287 49.0203C48.4088 49.0203 47.3389 50.0902 47.3389 51.4101C47.3389 52.73 48.4088 53.8 49.7287 53.8Z" fill="white"/>
<path d="M48.665 37.3177C48.665 37.9051 49.1418 38.3818 49.7292 38.3818C50.3166 38.3818 50.7933 37.9051 50.7933 37.3177V34.7596C50.7933 34.1723 50.3166 33.6956 49.7292 33.6956C49.1418 33.6956 48.665 34.1723 48.665 34.7596V37.3177Z" fill="url(#paint6_linear_1_409)"/>
<path d="M49.7292 23.0353C50.3166 23.0353 50.7933 22.5586 50.7933 21.9712V19.4132C50.7933 18.8258 50.3166 18.3491 49.7292 18.3491C49.1418 18.3491 48.665 18.8258 48.665 19.4132V21.9712C48.665 22.5586 49.1418 23.0353 49.7292 23.0353Z" fill="url(#paint7_linear_1_409)"/>
<path d="M48.665 29.6433C48.665 30.2306 49.1418 30.7073 49.7292 30.7073C50.3166 30.7073 50.7933 30.2306 50.7933 29.6433V27.0853C50.7933 26.4979 50.3166 26.0212 49.7292 26.0212C49.1418 26.0212 48.665 26.4979 48.665 27.0853V29.6433Z" fill="url(#paint8_linear_1_409)"/>
<path d="M49.7292 79.7322C49.1418 79.7322 48.665 80.2089 48.665 80.7963V83.3543C48.665 83.9417 49.1418 84.4184 49.7292 84.4184C50.3166 84.4184 50.7933 83.9417 50.7933 83.3543V80.7963C50.7933 80.2089 50.3166 79.7322 49.7292 79.7322Z" fill="url(#paint9_linear_1_409)"/>
<path d="M50.7933 65.4491C50.7933 64.8617 50.3166 64.385 49.7292 64.385C49.1418 64.385 48.665 64.8617 48.665 65.4491V68.0071C48.665 68.5945 49.1418 69.0712 49.7292 69.0712C50.3166 69.0712 50.7933 68.5945 50.7933 68.0071V65.4491Z" fill="url(#paint10_linear_1_409)"/>
<path d="M50.7933 57.7779C50.7933 57.1906 50.3166 56.7139 49.7292 56.7139C49.1418 56.7139 48.665 57.1906 48.665 57.7779V60.336C48.665 60.9234 49.1418 61.4001 49.7292 61.4001C50.3166 61.4001 50.7933 60.9234 50.7933 60.336V57.7779Z" fill="url(#paint11_linear_1_409)"/>
<path d="M50.7933 73.1232C50.7933 72.5358 50.3166 72.0591 49.7292 72.0591C49.1418 72.0591 48.665 72.5358 48.665 73.1232V75.6812C48.665 76.2686 49.1418 76.7453 49.7292 76.7453C50.3166 76.7453 50.7933 76.2686 50.7933 75.6812V73.1232Z" fill="url(#paint12_linear_1_409)"/>
<path d="M48.665 44.9898C48.665 45.5772 49.1418 46.0539 49.7292 46.0539C50.3166 46.0539 50.7933 45.5772 50.7933 44.9898V42.4318C50.7933 41.8444 50.3166 41.3677 49.7292 41.3677C49.1418 41.3677 48.665 41.8444 48.665 42.4318V44.9898Z" fill="url(#paint13_linear_1_409)"/>
<path d="M21.2374 67.8342C21.4353 68.1747 21.7929 68.3662 22.1589 68.3662C22.3398 68.3662 22.5228 68.3194 22.6888 68.2236L24.8766 66.9595C25.3852 66.6658 25.5597 66.0146 25.2661 65.5059C24.9724 64.9973 24.3211 64.8228 23.8125 65.1165L21.6247 66.3806C21.1182 66.6743 20.9437 67.3255 21.2374 67.8342Z" fill="url(#paint14_linear_1_409)"/>
<path d="M68.1033 41.8393C68.2842 41.8393 68.4673 41.7925 68.6333 41.6967L70.821 40.4326C71.3297 40.1389 71.5042 39.4877 71.2105 38.9791C70.9168 38.4705 70.2656 38.2959 69.7569 38.5896L67.5692 39.8538C67.0605 40.1474 66.886 40.7987 67.1797 41.3073C67.3776 41.6478 67.7352 41.8393 68.1033 41.8393Z" fill="url(#paint15_linear_1_409)"/>
<path d="M61.5403 45.6284C61.7212 45.6284 61.9043 45.5816 62.0703 45.4859L64.258 44.2239C64.7666 43.9302 64.9411 43.279 64.6474 42.7703C64.3538 42.2617 63.7025 42.0872 63.1939 42.3809L61.0062 43.6429C60.4976 43.9366 60.323 44.5878 60.6167 45.0964C60.8146 45.439 61.1722 45.6284 61.5403 45.6284Z" fill="url(#paint16_linear_1_409)"/>
<path d="M54.9769 49.4178C55.1578 49.4178 55.3409 49.3709 55.5069 49.2752L57.6948 48.0132C58.2034 47.7195 58.3779 47.0683 58.0842 46.5596C57.7905 46.051 57.1393 45.8765 56.6306 46.1702L54.4427 47.4322C53.9341 47.7259 53.7596 48.3771 54.0533 48.8857C54.2512 49.2262 54.6087 49.4178 54.9769 49.4178Z" fill="url(#paint17_linear_1_409)"/>
<path d="M74.6668 38.05C74.8477 38.05 75.0307 38.0032 75.1967 37.9074L77.3845 36.6433C77.8931 36.3496 78.0676 35.6984 77.7739 35.1898C77.4802 34.6811 76.829 34.5066 76.3204 34.8003L74.1326 36.0644C73.624 36.3581 73.4495 37.0093 73.7432 37.518C73.9411 37.8606 74.3008 38.05 74.6668 38.05Z" fill="url(#paint18_linear_1_409)"/>
<path d="M40.9268 56.4644C41.1247 56.8049 41.4822 56.9964 41.8504 56.9964C42.0313 56.9964 42.2143 56.9496 42.3803 56.8538L44.5681 55.5898C45.0767 55.2961 45.2512 54.6449 44.9575 54.1363C44.6638 53.6277 44.0126 53.4532 43.504 53.7469L41.3162 55.0109C40.8076 55.3046 40.6331 55.9558 40.9268 56.4644Z" fill="url(#paint19_linear_1_409)"/>
<path d="M27.8003 64.0419C27.9982 64.3824 28.3558 64.574 28.7239 64.574C28.9048 64.574 29.0879 64.5272 29.2538 64.4314L31.4416 63.1673C31.9502 62.8736 32.1247 62.2223 31.831 61.7137C31.5374 61.2051 30.8861 61.0306 30.3775 61.3243L28.1898 62.5884C27.6811 62.8842 27.5066 63.5333 27.8003 64.0419Z" fill="url(#paint20_linear_1_409)"/>
<path d="M34.3638 60.2545C34.5617 60.595 34.9192 60.7866 35.2874 60.7866C35.4683 60.7866 35.6513 60.7397 35.8173 60.644L38.0051 59.3799C38.5137 59.0862 38.6882 58.435 38.3945 57.9263C38.1008 57.4177 37.4496 57.2432 36.941 57.5369L34.7533 58.801C34.2446 59.0947 34.0701 59.7459 34.3638 60.2545Z" fill="url(#paint21_linear_1_409)"/>
<path d="M41.5203 47.8728L43.7166 49.1412C43.8847 49.2391 44.0677 49.2838 44.2465 49.2838C44.6147 49.2838 44.9722 49.0922 45.1701 48.7517C45.4638 48.2431 45.2893 47.5919 44.7807 47.2982L42.5844 46.0298C42.0737 45.7361 41.4246 45.9106 41.1309 46.4193C40.8372 46.9279 41.0117 47.5791 41.5203 47.8728Z" fill="url(#paint22_linear_1_409)"/>
<path d="M21.7542 36.4624L23.9505 37.7308C24.1186 37.8287 24.3017 37.8734 24.4804 37.8734C24.8486 37.8734 25.2061 37.6818 25.4041 37.3413C25.6978 36.8327 25.5232 36.1815 25.0146 35.8878L22.8183 34.6194C22.3097 34.3257 21.6585 34.5002 21.3648 35.0089C21.0711 35.5175 21.2456 36.1687 21.7542 36.4624Z" fill="url(#paint23_linear_1_409)"/>
<path d="M34.932 44.0703L37.1282 45.3387C37.2964 45.4366 37.4794 45.4813 37.6581 45.4813C38.0263 45.4813 38.3839 45.2897 38.5818 44.9492C38.8755 44.4406 38.701 43.7894 38.1923 43.4957L35.996 42.2273C35.4874 41.9336 34.8362 42.1081 34.5425 42.6168C34.2488 43.1254 34.4233 43.7766 34.932 44.0703Z" fill="url(#paint24_linear_1_409)"/>
<path d="M28.3431 40.2649L30.5394 41.5333C30.7075 41.6312 30.8905 41.6759 31.0693 41.6759C31.4375 41.6759 31.795 41.4843 31.9929 41.1438C32.2866 40.6352 32.1121 39.984 31.6035 39.6903L29.4072 38.4219C28.8964 38.1282 28.2473 38.3027 27.9536 38.8114C27.66 39.32 27.8345 39.9712 28.3431 40.2649Z" fill="url(#paint25_linear_1_409)"/>
<path d="M96.193 53.8662H87.9953V35.4619C90.6087 34.9618 92.59 32.6613 92.59 29.9032C92.59 26.7833 90.0511 24.2444 86.9312 24.2444C85.2245 24.2444 83.6922 25.0063 82.6536 26.2044L79.2145 24.2189C79.3273 23.8932 79.3912 23.5442 79.3912 23.1803V13.0077C79.3912 11.2477 77.9589 9.81548 76.1989 9.81548H64.2621C62.5021 9.81548 61.0699 11.2477 61.0699 13.0077V13.7441L55.0727 10.2815C55.2749 9.69843 55.3877 9.07488 55.3877 8.42366C55.3877 5.30379 52.8488 2.76489 49.7289 2.76489C46.6091 2.76489 44.0702 5.30379 44.0702 8.42366C44.0702 9.07488 44.1808 9.69843 44.3851 10.2815L16.8042 26.2066C15.7657 25.0063 14.2334 24.2465 12.5266 24.2465C9.40676 24.2465 6.86787 26.7854 6.86787 29.9053C6.86787 32.6613 8.84919 34.9639 11.4626 35.464V40.7163H4.69077C2.93078 40.7163 1.49854 42.1486 1.49854 43.9086V54.0812C1.49854 55.8411 2.93078 57.2734 4.69077 57.2734H16.6276C18.3876 57.2734 19.8198 55.8411 19.8198 54.0812V43.9086C19.8198 42.1486 18.3876 40.7163 16.6276 40.7163H13.5907V35.464C14.8655 35.2214 15.987 34.5489 16.8042 33.604L17.3618 33.9254C17.5299 34.0233 17.713 34.068 17.8939 34.068C18.262 34.068 18.6196 33.8764 18.8153 33.5359C19.109 33.0273 18.9345 32.3761 18.4259 32.0824L17.8704 31.761C18.0726 31.1779 18.1854 30.5544 18.1854 29.9032C18.1854 29.2519 18.0726 28.6284 17.8704 28.0453L45.4492 12.1224C46.2664 13.0673 47.3901 13.7377 48.6627 13.9824V14.2974C48.6627 14.8848 49.1394 15.3615 49.7268 15.3615C50.3142 15.3615 50.7909 14.8848 50.7909 14.2974V13.9824C52.0657 13.7398 53.1872 13.0673 54.0044 12.1224L61.0678 16.2V23.1782C61.0678 24.9382 62.5 26.3704 64.26 26.3704H76.1968C76.8076 26.3704 77.3779 26.1959 77.8632 25.8958L81.5853 28.0453C81.3831 28.6284 81.2703 29.2519 81.2703 29.9032C81.2703 30.5544 81.381 31.1779 81.5853 31.761L80.6979 32.2739C80.1892 32.5676 80.0147 33.2188 80.3084 33.7275C80.5063 34.068 80.8639 34.2595 81.2299 34.2595C81.4108 34.2595 81.5938 34.2127 81.7598 34.1169L82.6515 33.6019C83.4687 34.5468 84.5924 35.2172 85.865 35.4619V54.9303C85.865 55.5177 86.3417 55.9944 86.9291 55.9944H96.193C96.7803 55.9944 97.257 56.4711 97.257 57.0584V78.1974C97.257 78.7848 96.7803 79.2615 96.193 79.2615H59.1631C58.5757 79.2615 58.099 78.7848 58.099 78.1974V57.0584C58.099 56.4711 58.5757 55.9944 59.1631 55.9944H81.0703C81.6577 55.9944 82.1344 55.5177 82.1344 54.9303C82.1344 54.3429 81.6577 53.8662 81.0703 53.8662H59.1631C58.448 53.8662 57.7904 54.1046 57.2584 54.5025L55.7623 53.6385C55.2515 53.3448 54.6024 53.5193 54.3087 54.028C54.015 54.5366 54.1896 55.1878 54.6982 55.4815L56.0708 56.2753C56.007 56.5264 55.9687 56.7882 55.9687 57.0584V78.1974C55.9687 79.9574 57.4009 81.3897 59.1609 81.3897H70.0294L54.0044 90.6408C53.1872 89.6959 52.0635 89.0255 50.7909 88.7829V88.4679C50.7909 87.8806 50.3142 87.4039 49.7268 87.4039C49.1394 87.4039 48.6627 87.8806 48.6627 88.4679V88.7829C47.388 89.0255 46.2664 89.698 45.4492 90.6429L17.8704 74.72C18.0726 74.1369 18.1854 73.5134 18.1854 72.8622C18.1854 72.2109 18.0726 71.5874 17.8704 71.0043L18.3131 70.7489C18.8217 70.4552 18.9962 69.804 18.7025 69.2954C18.4089 68.7867 17.7577 68.6122 17.249 68.9059L16.8021 69.1634C15.9849 68.2185 14.8612 67.5481 13.5886 67.3055V62.0681C13.5886 61.4808 13.1119 61.0041 12.5245 61.0041C11.9371 61.0041 11.4604 61.4808 11.4604 62.0681V67.3055C8.84706 67.8057 6.86574 70.1062 6.86574 72.8622C6.86574 75.982 9.40464 78.5209 12.5245 78.5209C14.2313 78.5209 15.7636 77.759 16.8021 76.5609L44.3809 92.4838C44.1787 93.0669 44.0659 93.6904 44.0659 94.3417C44.0659 97.4615 46.6048 100 49.7247 100C52.8446 100 55.3834 97.4615 55.3834 94.3417C55.3834 93.6904 55.2728 93.0669 55.0685 92.4838L74.1559 81.462C74.1921 81.4408 74.224 81.4131 74.2559 81.3897H96.193C97.953 81.3897 99.3852 79.9574 99.3852 78.1974V57.0584C99.3852 55.2985 97.953 53.8662 96.193 53.8662ZM17.6895 43.9064V54.079C17.6895 54.6664 17.2128 55.1431 16.6255 55.1431H4.69077C4.1034 55.1431 3.62669 54.6664 3.62669 54.079V43.9064C3.62669 43.3191 4.1034 42.8424 4.69077 42.8424H16.6276C17.2128 42.8424 17.6895 43.3212 17.6895 43.9064ZM12.5266 33.4359C10.5794 33.4359 8.99603 31.8526 8.99603 29.9053C8.99603 27.958 10.5794 26.3747 12.5266 26.3747C14.4739 26.3747 16.0573 27.958 16.0573 29.9053C16.0573 31.8526 14.4739 33.4359 12.5266 33.4359ZM49.7289 11.9585C47.7817 11.9585 46.1983 10.3752 46.1983 8.42792C46.1983 6.48066 47.7817 4.89518 49.7289 4.89518C51.6762 4.89518 53.2596 6.47853 53.2596 8.42579C53.2596 10.3731 51.6762 11.9585 49.7289 11.9585ZM76.1989 24.2465H64.2621C63.6747 24.2465 63.198 23.7698 63.198 23.1824V13.0098C63.198 12.4225 63.6747 11.9458 64.2621 11.9458H76.1989C76.7863 11.9458 77.263 12.4225 77.263 13.0098V23.1824C77.263 23.7677 76.7863 24.2465 76.1989 24.2465ZM83.4006 29.9053C83.4006 27.958 84.984 26.3747 86.9312 26.3747C88.8785 26.3747 90.4619 27.958 90.4619 29.9053C90.4619 31.8526 88.8785 33.4359 86.9312 33.4359C84.984 33.4359 83.4006 31.8526 83.4006 29.9053ZM12.5266 76.3928C10.5794 76.3928 8.99603 74.8094 8.99603 72.8622C8.99603 70.9149 10.5794 69.3315 12.5266 69.3315C14.4739 69.3315 16.0573 70.9149 16.0573 72.8622C16.0573 74.8094 14.4739 76.3928 12.5266 76.3928ZM49.7289 97.8723C47.7817 97.8723 46.1983 96.2889 46.1983 94.3417C46.1983 92.3944 47.7817 90.811 49.7289 90.811C51.6762 90.811 53.2596 92.3944 53.2596 94.3417C53.2596 96.2889 51.6762 97.8723 49.7289 97.8723Z" fill="url(#paint26_linear_1_409)"/>
<path d="M46.2749 51.3849C46.2749 53.2896 47.8242 54.8389 49.7289 54.8389C51.6336 54.8389 53.1829 53.2896 53.1829 51.3849C53.1829 49.4802 51.6336 47.9309 49.7289 47.9309C47.8242 47.9309 46.2749 49.4781 46.2749 51.3849ZM49.7289 50.0569C50.461 50.0569 51.0547 50.6528 51.0547 51.3828C51.0547 52.1127 50.4589 52.7086 49.7289 52.7086C48.9989 52.7086 48.4031 52.1127 48.4031 51.3828C48.4031 50.6528 48.9968 50.0569 49.7289 50.0569Z" fill="url(#paint27_linear_1_409)"/>
<path d="M3.40935 66.2821C3.12631 66.2821 2.85603 66.1693 2.65598 65.9713L0.310755 63.6261C-0.104236 63.2111 -0.104236 62.5365 0.310755 62.1215L2.65598 59.7763C2.85603 59.5762 3.12631 59.4656 3.40935 59.4656C3.6924 59.4656 3.96267 59.5784 4.16059 59.7763L6.50582 62.1215C6.70587 62.3216 6.81866 62.5918 6.81866 62.8749C6.81866 63.1579 6.70587 63.4282 6.50582 63.6283L4.16059 65.9735C3.96054 66.1693 3.69027 66.2821 3.40935 66.2821ZM2.56873 62.8728L3.40935 63.7134L4.24997 62.8728L3.40935 62.0321L2.56873 62.8728Z" fill="#6583FE"/>
<path d="M80.672 90.8335C80.389 90.8335 80.1187 90.7207 79.9187 90.5228L77.5734 88.1776C77.3734 87.9775 77.2627 87.7072 77.2627 87.4242C77.2627 87.1412 77.3755 86.8709 77.5734 86.6708L79.9187 84.3256C80.1187 84.1256 80.389 84.0149 80.672 84.0149C80.9551 84.0149 81.2254 84.1277 81.4254 84.3256L83.7707 86.6708C84.1857 87.0858 84.1857 87.7605 83.7707 88.1754L81.4254 90.5207C81.2232 90.7207 80.953 90.8335 80.672 90.8335ZM79.8314 87.4242L80.672 88.2648L81.5127 87.4242L80.672 86.5836L79.8314 87.4242Z" fill="#6583FE"/>
<path d="M88.176 17.6403C87.9951 17.6403 87.8121 17.5935 87.6461 17.4977L84.7752 15.8399C84.2666 15.5462 84.0921 14.895 84.3858 14.3863L86.0436 11.5155C86.3373 11.0068 86.9885 10.8323 87.4971 11.126L90.368 12.7838C90.8766 13.0775 91.0511 13.7287 90.7575 14.2374L89.0996 17.1083C88.8996 17.4488 88.5421 17.6403 88.176 17.6403ZM86.7587 14.5289L87.7866 15.1227L88.3803 14.0948L87.3524 13.501L86.7587 14.5289Z" fill="#6583FE"/>
<path d="M81.9494 8.09743C81.362 8.09743 80.8853 7.62072 80.8853 7.03335C80.8853 6.3268 80.3107 5.7522 79.6041 5.7522C79.0167 5.7522 78.54 5.27549 78.54 4.68812C78.54 4.10075 79.0167 3.62404 79.6041 3.62404C80.3107 3.62404 80.8853 3.04944 80.8853 2.34289C80.8853 1.75552 81.362 1.27881 81.9494 1.27881C82.5367 1.27881 83.0134 1.75552 83.0134 2.34289C83.0134 3.04944 83.588 3.62404 84.2946 3.62404C84.882 3.62404 85.3587 4.10075 85.3587 4.68812C85.3587 5.27549 84.882 5.7522 84.2946 5.7522C83.588 5.7522 83.0134 6.3268 83.0134 7.03335C83.0134 7.62072 82.5367 8.09743 81.9494 8.09743Z" fill="#6583FE"/>
</g>
<defs>
<linearGradient id="paint0_linear_1_409" x1="94.3192" y1="5.55981e-07" x2="83.9317" y2="103.288" gradientUnits="userSpaceOnUse">
<stop stop-color="#61DCDF"/>
<stop offset="1" stop-color="#886CFF"/>
</linearGradient>
<linearGradient id="paint1_linear_1_409" x1="74.4897" y1="60.7402" x2="74.4479" y2="63.0788" gradientUnits="userSpaceOnUse">
<stop stop-color="#61DCDF"/>
<stop offset="1" stop-color="#886CFF"/>
</linearGradient>
<linearGradient id="paint2_linear_1_409" x1="86.7225" y1="68.3716" x2="86.7022" y2="70.7107" gradientUnits="userSpaceOnUse">
<stop stop-color="#61DCDF"/>
<stop offset="1" stop-color="#886CFF"/>
</linearGradient>
<linearGradient id="paint3_linear_1_409" x1="86.7225" y1="72.6887" x2="86.7022" y2="75.0279" gradientUnits="userSpaceOnUse">
<stop stop-color="#61DCDF"/>
<stop offset="1" stop-color="#886CFF"/>
</linearGradient>
<linearGradient id="paint4_linear_1_409" x1="12.9576" y1="45.3684" x2="11.8182" y2="53.1563" gradientUnits="userSpaceOnUse">
<stop stop-color="#61DCDF"/>
<stop offset="1" stop-color="#886CFF"/>
</linearGradient>
<linearGradient id="paint5_linear_1_409" x1="72.5287" y1="14.4692" x2="71.3894" y2="22.257" gradientUnits="userSpaceOnUse">
<stop stop-color="#61DCDF"/>
<stop offset="1" stop-color="#886CFF"/>
</linearGradient>
<linearGradient id="paint6_linear_1_409" x1="50.7044" y1="33.6956" x2="49.6125" y2="38.593" gradientUnits="userSpaceOnUse">
<stop stop-color="#61DCDF"/>
<stop offset="1" stop-color="#886CFF"/>
</linearGradient>
<linearGradient id="paint7_linear_1_409" x1="50.7044" y1="18.3491" x2="49.6125" y2="23.2466" gradientUnits="userSpaceOnUse">
<stop stop-color="#61DCDF"/>
<stop offset="1" stop-color="#886CFF"/>
</linearGradient>
<linearGradient id="paint8_linear_1_409" x1="50.7044" y1="26.0212" x2="49.6125" y2="30.9186" gradientUnits="userSpaceOnUse">
<stop stop-color="#61DCDF"/>
<stop offset="1" stop-color="#886CFF"/>
</linearGradient>
<linearGradient id="paint9_linear_1_409" x1="50.7044" y1="79.7322" x2="49.6125" y2="84.6296" gradientUnits="userSpaceOnUse">
<stop stop-color="#61DCDF"/>
<stop offset="1" stop-color="#886CFF"/>
</linearGradient>
<linearGradient id="paint10_linear_1_409" x1="50.7044" y1="64.385" x2="49.6125" y2="69.2824" gradientUnits="userSpaceOnUse">
<stop stop-color="#61DCDF"/>
<stop offset="1" stop-color="#886CFF"/>
</linearGradient>
<linearGradient id="paint11_linear_1_409" x1="50.7044" y1="56.7139" x2="49.6125" y2="61.6113" gradientUnits="userSpaceOnUse">
<stop stop-color="#61DCDF"/>
<stop offset="1" stop-color="#886CFF"/>
</linearGradient>
<linearGradient id="paint12_linear_1_409" x1="50.7044" y1="72.0591" x2="49.6125" y2="76.9565" gradientUnits="userSpaceOnUse">
<stop stop-color="#61DCDF"/>
<stop offset="1" stop-color="#886CFF"/>
</linearGradient>
<linearGradient id="paint13_linear_1_409" x1="50.7044" y1="41.3677" x2="49.6125" y2="46.2651" gradientUnits="userSpaceOnUse">
<stop stop-color="#61DCDF"/>
<stop offset="1" stop-color="#886CFF"/>
</linearGradient>
<linearGradient id="paint14_linear_1_409" x1="25.2284" y1="64.9739" x2="24.9339" y2="68.6719" gradientUnits="userSpaceOnUse">
<stop stop-color="#61DCDF"/>
<stop offset="1" stop-color="#886CFF"/>
</linearGradient>
<linearGradient id="paint15_linear_1_409" x1="71.1727" y1="38.447" x2="70.8784" y2="42.145" gradientUnits="userSpaceOnUse">
<stop stop-color="#61DCDF"/>
<stop offset="1" stop-color="#886CFF"/>
</linearGradient>
<linearGradient id="paint16_linear_1_409" x1="64.6097" y1="42.2383" x2="64.3157" y2="45.934" gradientUnits="userSpaceOnUse">
<stop stop-color="#61DCDF"/>
<stop offset="1" stop-color="#886CFF"/>
</linearGradient>
<linearGradient id="paint17_linear_1_409" x1="58.0465" y1="46.0276" x2="57.7526" y2="49.7233" gradientUnits="userSpaceOnUse">
<stop stop-color="#61DCDF"/>
<stop offset="1" stop-color="#886CFF"/>
</linearGradient>
<linearGradient id="paint18_linear_1_409" x1="77.7361" y1="34.6577" x2="77.4418" y2="38.3557" gradientUnits="userSpaceOnUse">
<stop stop-color="#61DCDF"/>
<stop offset="1" stop-color="#886CFF"/>
</linearGradient>
<linearGradient id="paint19_linear_1_409" x1="44.9197" y1="53.6042" x2="44.6254" y2="57.3021" gradientUnits="userSpaceOnUse">
<stop stop-color="#61DCDF"/>
<stop offset="1" stop-color="#886CFF"/>
</linearGradient>
<linearGradient id="paint20_linear_1_409" x1="31.7933" y1="61.1816" x2="31.499" y2="64.8797" gradientUnits="userSpaceOnUse">
<stop stop-color="#61DCDF"/>
<stop offset="1" stop-color="#886CFF"/>
</linearGradient>
<linearGradient id="paint21_linear_1_409" x1="38.3568" y1="57.3943" x2="38.0624" y2="61.0923" gradientUnits="userSpaceOnUse">
<stop stop-color="#61DCDF"/>
<stop offset="1" stop-color="#886CFF"/>
</linearGradient>
<linearGradient id="paint22_linear_1_409" x1="45.132" y1="45.8872" x2="44.8375" y2="49.5899" gradientUnits="userSpaceOnUse">
<stop stop-color="#61DCDF"/>
<stop offset="1" stop-color="#886CFF"/>
</linearGradient>
<linearGradient id="paint23_linear_1_409" x1="25.3659" y1="34.4768" x2="25.0715" y2="38.1795" gradientUnits="userSpaceOnUse">
<stop stop-color="#61DCDF"/>
<stop offset="1" stop-color="#886CFF"/>
</linearGradient>
<linearGradient id="paint24_linear_1_409" x1="38.5437" y1="42.0847" x2="38.2492" y2="45.7874" gradientUnits="userSpaceOnUse">
<stop stop-color="#61DCDF"/>
<stop offset="1" stop-color="#886CFF"/>
</linearGradient>
<linearGradient id="paint25_linear_1_409" x1="31.9548" y1="38.2793" x2="31.6603" y2="41.982" gradientUnits="userSpaceOnUse">
<stop stop-color="#61DCDF"/>
<stop offset="1" stop-color="#886CFF"/>
</linearGradient>
<linearGradient id="paint26_linear_1_409" x1="95.2944" y1="2.76489" x2="84.6725" y2="108.366" gradientUnits="userSpaceOnUse">
<stop stop-color="#61DCDF"/>
<stop offset="1" stop-color="#886CFF"/>
</linearGradient>
<linearGradient id="paint27_linear_1_409" x1="52.8942" y1="47.9309" x2="52.1346" y2="55.4323" gradientUnits="userSpaceOnUse">
<stop stop-color="#61DCDF"/>
<stop offset="1" stop-color="#886CFF"/>
</linearGradient>
<clipPath id="clip0_1_409">
<rect width="99.385" height="100" fill="white"/>
</clipPath>
</defs>
</svg>
