<svg width="170" height="170" viewBox="0 0 170 170" fill="none" xmlns="http://www.w3.org/2000/svg">
<path d="M0 113.437C7.39514 120.84 16.1811 126.706 25.8563 130.699C35.5314 134.693 45.9063 136.736 56.3885 136.712C66.8707 136.688 77.255 134.598 86.9485 130.56C96.6419 126.522 105.455 120.616 112.884 113.18C120.313 105.743 126.212 96.9207 130.246 87.217C134.279 77.5134 136.367 67.1182 136.391 56.6249C136.415 46.1317 134.374 35.7459 130.385 26.0605C126.396 16.3752 120.536 7.57995 113.141 0.177017L88.2537 25.0906C96.6174 33.463 101.301 44.8336 101.274 56.7011C101.247 68.5685 96.5114 79.9607 88.1096 88.3713C79.7078 96.782 68.3276 101.522 56.4726 101.549C44.6177 101.576 33.259 96.8881 24.8954 88.5157L0 113.437Z" fill="#FF9513"/>
<path d="M128.824 134.839C134.014 122.353 128.129 108.065 115.68 102.926C103.23 97.7871 88.93 103.744 83.7399 116.23C78.5497 128.716 84.4348 143.004 96.8845 148.143C109.334 153.282 123.634 147.325 128.824 134.839Z" fill="#FFC0EC"/>
</svg>
