<svg width="45" height="46" viewBox="0 0 45 46" fill="none" xmlns="http://www.w3.org/2000/svg">
<path d="M43.3301 21.1035L31.0254 18.0273L36.9141 10.7324C37.3535 10.1172 37.3535 9.32617 36.8262 8.79883C36.2988 8.27148 35.5078 8.27148 34.9805 8.71094L27.5977 14.5996L24.5215 2.29492C23.9941 0.0976562 20.918 0.0976562 20.3906 2.29492L17.3145 14.5996L10.0195 8.71094C9.4043 8.27148 8.61328 8.27148 8.08594 8.79883C7.64648 9.32617 7.55859 10.1172 7.99805 10.7324L13.8867 18.0273L1.58203 21.1035C0.615234 21.3672 0 22.1582 0 23.125C0 24.0918 0.527344 24.9707 1.58203 25.2344L13.8867 28.3105L7.99805 35.6055C7.55859 36.2207 7.64648 37.0117 8.08594 37.5391C8.61328 37.9785 9.4043 38.0664 10.0195 37.627L17.3145 31.7383L20.3906 44.043C20.6543 45.0977 21.5332 45.625 22.5 45.625C22.8516 45.625 24.1699 45.4492 24.5215 44.043L27.5977 31.7383L34.9805 37.627C35.5078 38.0664 36.2988 37.9785 36.8262 37.5391C37.3535 37.0117 37.3535 36.2207 36.9141 35.6055L31.0254 28.3105L43.3301 25.2344C44.3848 24.9707 45 24.0918 45 23.125C45 22.2461 44.3848 21.3672 43.3301 21.1035ZM26.0156 26.6406L22.5 40.7031L18.9844 26.6406L4.92188 23.125L18.9844 19.6094L22.5 5.54688L26.0156 19.6094L40.0781 23.125L26.0156 26.6406Z" fill="url(#paint0_linear_1_647)"/>
<defs>
<linearGradient id="paint0_linear_1_647" x1="45.0358" y1="7" x2="42.475" y2="43.0198" gradientUnits="userSpaceOnUse">
<stop stop-color="#61DCDF"/>
<stop offset="1" stop-color="#886CFF"/>
</linearGradient>
</defs>
</svg>
